<?xml version="1.0" standalone="no"?>
<!DOCTYPE svg PUBLIC "-//W3C//DTD SVG 20010904//EN"
 "http://www.w3.org/TR/2001/REC-SVG-20010904/DTD/svg10.dtd">
<svg version="1.0" xmlns="http://www.w3.org/2000/svg"
 width="576.000000pt" height="576.000000pt" viewBox="0 0 576.000000 576.000000"
 preserveAspectRatio="xMidYMid meet">
<metadata>
Created by potrace 1.14, written by Peter Selinger 2001-2017
</metadata>
<g transform="translate(0.000000,576.000000) scale(0.100000,-0.100000)"
fill="#000000" stroke="none">
<path d="M528 5743 c24 -3 36 -11 42 -28 6 -17 15 -23 25 -19 8 4 29 1 45 -6
24 -10 33 -10 45 0 21 17 19 30 -4 30 -11 0 -28 3 -38 8 -10 4 106 9 257 12
l275 5 -340 1 c-187 1 -325 -1 -307 -3z"/>
<path d="M2874 5725 l6 -25 -187 -1 c-104 -1 -302 -3 -441 -5 -220 -3 -254 -2
-259 12 -5 13 -8 13 -24 -2 -14 -13 -38 -16 -126 -14 -59 1 -227 -3 -373 -10
-146 -6 -416 -10 -601 -8 -304 3 -337 5 -353 21 -22 21 -32 22 -40 1 -5 -13
-9 -14 -21 -4 -12 10 -18 10 -30 0 -21 -17 -305 -3 -312 16 -3 9 -21 14 -45
14 -23 0 -37 -4 -33 -10 3 -5 -1 -10 -9 -10 -11 0 -16 -9 -16 -26 l0 -27 70 6
c62 5 71 4 84 -14 13 -19 16 -20 58 -6 55 19 204 12 230 -11 39 -34 218 -39
218 -6 0 21 300 17 308 -4 4 -13 7 -13 16 0 10 13 68 18 346 28 184 7 430 10
545 9 200 -4 212 -5 239 -26 43 -34 115 -27 139 13 11 20 86 18 109 -3 15 -14
18 -14 18 -1 0 22 61 28 302 28 190 0 209 -2 215 -17 4 -10 11 -21 17 -25 7
-5 7 -8 -1 -8 -7 0 -13 -4 -13 -10 0 -5 8 -10 17 -10 9 0 13 -3 10 -7 -4 -3
-31 -1 -59 6 -45 11 -60 10 -98 -3 -33 -11 -48 -12 -57 -4 -11 8 -21 6 -42 -9
-17 -14 -37 -19 -53 -16 -20 4 -30 -1 -43 -21 -10 -14 -21 -23 -26 -20 -5 3
-7 9 -4 13 6 10 -54 21 -118 21 -51 0 -137 -18 -137 -29 0 -4 20 -13 45 -20
38 -11 45 -17 46 -40 0 -23 1 -24 8 -6 5 11 7 23 4 28 -2 4 3 7 12 7 13 0 16
-6 11 -25 -7 -26 -3 -29 46 -25 14 1 29 -3 32 -8 4 -6 -25 -13 -71 -18 -94
-10 -887 -9 -930 0 -19 5 -33 15 -36 28 -3 11 -10 17 -17 13 -8 -5 -8 -10 0
-20 16 -20 -27 -30 -64 -15 -19 7 -33 7 -40 1 -7 -6 -166 -11 -401 -12 -363
-1 -396 0 -485 20 -52 11 -115 23 -140 25 -84 9 -115 19 -136 44 -21 26 -48
23 -37 -3 4 -12 -4 -15 -33 -15 -22 0 -54 4 -72 9 -32 9 -32 9 -32 -24 0 -40
4 -41 118 -51 55 -4 82 -11 82 -19 0 -18 33 -24 95 -18 60 6 179 -13 212 -34
13 -9 31 -12 43 -8 12 4 52 1 90 -5 37 -6 110 -13 162 -16 51 -2 120 -8 153
-12 51 -6 56 -9 35 -16 -14 -4 -35 -7 -48 -6 -13 1 -30 -4 -39 -12 -13 -10
-17 -10 -20 0 -6 15 -50 16 -55 1 -2 -6 -27 -12 -56 -14 -29 -2 -50 0 -47 4 6
11 -55 41 -82 41 -10 0 -29 -7 -41 -16 -13 -9 -33 -13 -46 -10 -13 3 -32 -1
-44 -10 -20 -14 -22 -14 -22 5 0 26 -26 28 -53 4 -18 -17 -19 -17 -33 2 -14
19 -15 19 -20 -3 -6 -22 -24 -31 -24 -12 0 6 -11 10 -24 10 -14 0 -28 5 -31
10 -9 15 -45 12 -45 -3 0 -10 -17 -12 -75 -9 -51 3 -75 1 -75 -7 0 -6 -9 -11
-20 -11 -11 0 -20 5 -20 10 0 6 -15 10 -34 10 l-35 0 -3 -102 c-2 -57 -2 -140
0 -185 l3 -83 147 0 c142 0 188 -8 167 -29 -6 -6 -31 -6 -65 0 -30 5 -68 5
-85 0 -16 -4 -59 -5 -95 -1 -36 4 -66 6 -66 6 -1 -1 -4 -58 -7 -128 -5 -106
-3 -130 9 -143 20 -19 38 -19 54 0 15 18 47 20 53 3 3 -10 7 -10 20 0 13 11
58 13 224 8 239 -7 240 -7 432 0 119 4 149 2 177 -11 31 -14 33 -18 19 -31
-22 -23 -19 -44 8 -44 25 0 54 45 33 54 -6 2 -1 5 12 5 12 1 25 8 28 16 5 13
47 15 288 15 159 0 275 -4 268 -9 -10 -6 -7 -10 11 -15 29 -7 60 2 51 15 -3 5
139 9 339 9 189 0 346 2 348 4 2 2 3 54 1 115 -3 100 -5 111 -22 111 -10 0
-27 3 -37 7 -13 6 -8 9 22 13 43 5 46 11 59 117 3 18 8 38 12 44 4 8 3 9 -4 5
-7 -4 -12 -2 -12 3 0 6 5 11 10 11 6 0 10 11 10 24 0 33 38 79 61 73 11 -3 16
0 13 8 -11 29 113 28 137 -1 6 -7 17 -10 25 -7 8 3 14 -1 14 -8 0 -7 3 -9 6
-6 10 10 64 -32 76 -59 6 -13 16 -24 22 -24 6 0 27 -34 46 -75 19 -41 40 -75
45 -75 6 0 16 -9 23 -20 7 -11 21 -20 33 -20 11 0 17 -5 14 -10 -4 -6 -11 -8
-16 -5 -5 4 -9 2 -9 -4 0 -6 9 -15 20 -21 11 -6 18 -14 16 -19 -5 -8 29 -41
43 -41 12 0 41 -46 41 -64 0 -9 6 -13 14 -10 14 5 29 -18 30 -46 1 -13 33 -15
216 -18 145 -2 223 -6 239 -15 19 -9 25 -9 28 1 7 18 63 16 63 -3 0 -8 7 -15
15 -15 8 0 15 5 15 10 0 6 5 10 11 10 5 0 7 -4 4 -10 -3 -5 1 -10 9 -10 9 0
16 5 16 10 0 6 4 10 10 10 5 0 7 -8 4 -17 -5 -17 -5 -17 9 -1 8 10 16 15 19
13 3 -3 33 -6 67 -7 34 -1 64 -5 67 -10 3 -5 10 -6 15 -2 5 3 7 10 3 15 -3 5
10 1 29 -10 33 -18 66 -14 53 7 -3 5 1 13 10 16 8 3 13 2 10 -3 -10 -16 22
-20 34 -5 13 15 100 20 100 6 0 -17 52 -32 107 -32 50 0 55 2 50 20 -6 22 8
28 16 8 4 -10 7 -10 18 0 19 18 38 15 57 -9 22 -26 44 -29 224 -34 126 -4 146
-2 141 10 -3 8 0 15 7 15 6 0 18 6 25 14 8 8 37 13 73 14 55 1 61 -1 66 -23 4
-16 16 -26 43 -32 32 -8 17 -10 -92 -17 -71 -5 -155 -7 -185 -7 -30 1 -161 -3
-290 -9 -316 -14 -663 -25 -785 -25 -81 0 -105 4 -127 18 -27 19 -28 18 -54
-2 -21 -17 -41 -21 -95 -21 -37 0 -71 -4 -74 -10 -3 -5 -1 -10 4 -10 6 0 11
-9 11 -20 0 -30 -29 -24 -36 8 -10 45 -12 48 -13 15 -1 -41 35 -72 54 -46 15
21 67 5 71 -22 1 -10 12 -31 23 -46 12 -16 21 -34 21 -41 0 -8 14 -22 30 -31
17 -10 30 -24 30 -32 0 -18 70 -66 84 -58 6 3 8 2 3 -2 -10 -11 42 -65 62 -65
14 0 14 -2 1 -10 -12 -8 -12 -11 1 -27 38 -45 97 -154 118 -218 43 -134 53
-155 71 -155 17 0 151 -112 159 -133 2 -6 -6 -8 -18 -4 -11 3 -21 1 -21 -3 0
-5 -24 -16 -52 -25 -99 -32 -218 -88 -218 -102 0 -8 4 -12 9 -9 5 3 14 -1 21
-9 7 -8 22 -15 33 -15 20 0 61 -11 122 -32 52 -18 81 -11 206 52 39 20 59 12
59 -22 0 -10 7 -18 15 -18 20 0 19 7 -5 37 -30 38 -24 51 9 19 29 -28 29 -28
40 -7 7 12 16 21 22 21 5 0 3 -13 -5 -29 -13 -25 -13 -31 1 -50 20 -30 9 -39
-19 -15 -22 18 -22 17 1 -8 22 -26 24 -26 48 -11 14 9 36 34 50 56 14 23 30
37 38 33 8 -3 18 7 25 24 7 18 17 27 26 23 25 -9 15 -27 -50 -91 -53 -52 -64
-68 -64 -95 0 -18 -3 -54 -7 -82 -4 -27 -4 -47 0 -42 5 4 10 24 12 44 5 44 9
51 25 35 8 -8 7 -24 -5 -63 -12 -37 -14 -55 -7 -64 7 -8 7 -15 2 -19 -6 -3
-13 1 -16 10 -3 8 -10 12 -16 9 -6 -4 -7 1 -3 11 4 12 3 15 -5 10 -7 -4 -12
-12 -12 -17 0 -6 -7 -17 -15 -25 -20 -21 -19 -31 4 -37 13 -3 18 0 15 8 -3 6
2 18 11 25 13 11 14 10 9 -4 -4 -11 -2 -16 7 -14 14 3 79 83 79 98 0 5 7 7 15
4 10 -4 15 0 15 11 0 14 3 15 15 5 12 -10 15 -9 15 5 0 18 102 125 119 125 5
0 13 9 16 20 7 22 20 26 30 10 8 -12 -74 -102 -87 -94 -5 3 -7 2 -6 -3 3 -8
-26 -46 -50 -67 -44 -37 -52 -49 -52 -76 0 -16 5 -30 11 -30 6 0 8 -7 5 -16
-4 -10 -1 -14 6 -11 7 2 12 14 10 25 -2 12 2 22 7 22 19 0 12 -46 -9 -65 -15
-14 -20 -31 -20 -70 0 -28 6 -57 12 -63 8 -8 9 -15 3 -20 -16 -11 -17 -42 -2
-42 8 0 26 11 41 25 31 28 56 33 56 9 0 -9 -5 -12 -11 -8 -7 4 -10 1 -7 -7 3
-8 -8 -22 -25 -32 -16 -10 -32 -28 -35 -39 -4 -18 -6 -19 -11 -5 -3 9 -7 -24
-9 -73 -2 -78 0 -90 14 -90 10 0 14 5 10 16 -10 26 12 6 27 -26 15 -29 15 -29
-6 -15 -19 11 -24 11 -34 0 -11 -11 -10 -16 5 -25 14 -10 14 -11 0 -6 -20 6
-29 -24 -18 -62 8 -26 9 -26 15 -5 19 59 34 -34 16 -97 -10 -38 -21 -9 -12 32
7 29 6 35 -5 31 -20 -8 -19 -112 1 -119 8 -4 12 -10 9 -15 -3 -5 -1 -9 5 -9 5
0 13 5 16 11 5 6 12 4 20 -8 13 -17 14 -17 21 1 5 12 3 21 -4 24 -7 2 -12 8
-12 14 0 6 7 7 16 4 11 -4 14 -1 9 13 -3 12 0 21 10 25 10 4 13 11 8 18 -12
20 -14 48 -3 48 5 0 12 -11 16 -25 3 -14 10 -22 15 -19 5 3 7 9 4 13 -2 5 4
16 15 26 12 10 20 13 20 7 0 -7 -4 -12 -8 -12 -5 0 -9 -13 -9 -30 0 -16 4 -30
8 -30 12 0 31 77 36 150 3 36 11 76 18 90 7 14 16 44 20 65 6 32 5 38 -5 28
-7 -7 -13 -27 -13 -45 0 -18 -2 -25 -4 -15 -5 21 -33 16 -76 -14 -15 -11 -32
-17 -37 -14 -6 4 -13 -1 -16 -9 -7 -18 -24 -22 -24 -6 0 6 11 15 25 22 13 6
22 15 18 21 -3 6 -1 7 5 4 14 -9 43 3 36 14 -3 5 2 9 10 9 9 0 16 4 16 8 0 5
11 15 25 22 28 15 33 30 10 30 -19 0 -19 14 0 30 14 12 20 7 16 -14 -1 -5 4
-13 11 -17 20 -12 51 167 39 221 -1 3 -6 -3 -12 -13 -5 -9 -7 -22 -4 -27 4 -6
-6 -7 -25 -4 -19 4 -30 2 -30 -4 0 -10 -53 -45 -70 -47 -3 0 -10 -4 -16 -8
-17 -10 -24 30 -8 44 8 6 14 8 14 3 0 -4 10 2 23 13 12 11 32 26 45 32 12 7
22 22 23 34 0 12 3 16 6 10 7 -18 23 -16 23 2 0 18 20 20 20 3 1 -8 6 -6 14 5
8 10 17 46 21 80 9 73 26 89 94 94 74 5 87 7 103 21 13 11 17 6 28 -35 11 -44
13 -46 21 -24 6 16 5 28 -2 38 -18 21 0 33 60 38 54 4 81 18 81 40 0 7 20 35
44 62 61 67 188 133 271 140 33 3 66 10 74 16 11 9 15 9 18 -1 3 -6 9 -9 14
-6 16 9 59 12 59 3 0 -4 -7 -14 -15 -23 -8 -8 -15 -19 -15 -25 0 -21 -46 -80
-59 -75 -9 3 -11 -1 -7 -11 3 -9 2 -14 -3 -11 -12 8 -61 -32 -61 -49 0 -9 -6
-12 -15 -9 -9 4 -17 -1 -21 -12 -11 -37 -29 -69 -55 -104 -35 -45 -43 -78 -43
-172 0 -56 5 -83 18 -103 10 -15 15 -33 12 -41 -3 -8 -2 -12 3 -9 5 3 12 1 15
-4 4 -5 2 -12 -4 -16 -15 -9 -12 -25 3 -19 8 3 18 -6 25 -21 15 -32 40 -32 71
0 19 21 21 28 11 40 -8 9 -8 15 -2 15 6 0 12 -5 14 -11 4 -12 112 95 114 113
1 7 2 19 3 26 0 6 6 12 12 12 5 0 7 -4 4 -10 -16 -26 13 -6 39 27 16 20 24 33
16 28 -8 -5 -11 -3 -8 6 3 8 11 14 19 15 8 0 19 2 25 2 18 3 75 65 115 125
l39 58 0 1173 0 1174 -35 6 c-20 4 -40 4 -45 1 -15 -9 -594 -25 -600 -17 -10
13 -40 13 -62 -1 -33 -21 -149 -28 -173 -11 -10 8 -27 14 -37 14 -15 0 -18 8
-18 45 l0 45 122 0 c95 0 119 -3 110 -12 -7 -7 -12 -18 -12 -25 0 -21 55 -15
75 7 14 16 20 17 27 8 6 -10 15 -9 40 5 28 16 66 19 298 24 197 5 269 3 274
-5 4 -7 1 -12 -7 -12 -8 0 -20 -6 -26 -14 -15 -18 4 -26 42 -19 25 5 27 9 27
54 l0 49 -322 -1 c-178 0 -370 -4 -428 -8 -58 -5 -106 -4 -108 0 -5 12 -69 11
-76 0 -4 -5 -19 -5 -36 2 -23 9 -35 9 -50 -1 -24 -14 -64 -16 -55 -2 4 6 -35
10 -112 9 -76 -1 -107 -4 -88 -9 18 -4 -44 -8 -147 -9 -113 -1 -178 3 -178 9
0 15 -21 12 -39 -4 -12 -11 -63 -16 -198 -22 -183 -7 -183 -7 -183 15 0 21 -3
21 -151 21 -142 0 -151 -1 -156 -20 -3 -12 -14 -20 -27 -20 -17 0 -18 2 -6 10
11 7 11 10 2 10 -7 0 -11 4 -8 9 4 5 -56 9 -140 10 -134 0 -152 -2 -209 -24
-34 -14 -78 -25 -97 -25 -30 0 -37 4 -42 25 -4 14 -14 25 -22 25 -12 0 -15 -6
-10 -25z m426 -6 c22 -4 -6 -7 -75 -7 -77 1 -96 3 -63 7 26 4 50 10 54 14 4 4
17 4 28 0 12 -3 37 -10 56 -14z m1420 -47 c0 -11 10 -24 23 -30 12 -6 16 -11
10 -11 -7 -1 -13 -13 -13 -27 0 -14 -5 -35 -11 -46 -8 -15 -8 -26 1 -43 6 -12
10 -35 8 -51 l-3 -29 -232 -3 c-203 -2 -233 0 -233 13 0 21 -12 19 -32 -5 -17
-19 -27 -19 -265 -14 -278 6 -295 8 -287 29 9 21 -13 19 -25 -3 -9 -17 -28
-18 -302 -14 -285 4 -293 4 -310 25 -10 12 -18 24 -19 27 0 3 26 6 57 7 55 2
233 13 473 29 58 3 118 7 135 8 34 1 55 32 55 85 0 28 -2 31 -14 22 -10 -8
-16 -9 -21 -1 -8 13 -92 13 -100 0 -7 -11 -75 -8 -94 4 -6 4 -26 3 -44 -3 -39
-12 -92 -12 -80 0 14 14 187 29 338 29 94 0 135 -3 125 -10 -8 -5 -27 -10 -42
-10 -33 0 -36 -19 -8 -45 18 -16 20 -16 26 -1 3 9 10 16 15 16 4 0 6 -7 2 -16
-4 -10 1 -17 16 -21 22 -6 29 -37 9 -49 -7 -4 -8 -3 -4 5 9 14 -18 25 -41 17
-14 -6 -9 -12 23 -31 22 -13 43 -20 48 -15 5 5 16 6 25 4 9 -3 6 1 -5 8 -16
10 -19 18 -13 33 5 13 8 15 9 5 0 -12 4 -11 15 4 18 24 19 68 3 84 -6 6 -9 14
-6 17 2 3 105 8 228 11 187 6 222 4 218 -7 -4 -11 -40 -15 -162 -19 -87 -3
-164 -2 -171 3 -20 11 -43 -2 -47 -26 -2 -12 -9 -21 -15 -20 -6 1 -16 -12 -22
-29 -14 -40 -15 -38 12 -35 16 1 21 -3 19 -15 -4 -22 14 -23 36 -2 11 11 27
15 54 11 28 -4 44 0 62 14 20 16 25 17 30 4 3 -8 16 -15 28 -16 21 -1 21 -1
-4 -11 -16 -5 -28 -14 -28 -19 0 -14 37 -11 52 4 7 8 33 17 57 21 98 15 178
83 120 101 -19 6 -20 8 -3 26 14 15 31 19 90 19 63 0 73 -2 67 -16 -5 -14 -3
-15 18 -3 20 11 58 19 137 28 6 0 12 -7 12 -17z m357 12 c-3 -3 -12 -4 -19 -1
-8 3 -5 6 6 6 11 1 17 -2 13 -5z m-2047 -43 c15 -30 14 -31 -42 -31 -46 0 -50
2 -33 13 10 8 15 19 11 25 -5 8 3 12 23 12 20 0 34 -7 41 -19z m340 -15 c0 -3
-4 -8 -10 -11 -5 -3 -10 -1 -10 4 0 6 5 11 10 11 6 0 10 -2 10 -4z m-110 -29
c0 -13 -7 -32 -15 -43 -13 -18 -14 -16 -15 24 0 31 4 42 15 42 9 0 15 -9 15
-23z m80 -3 c0 -8 -4 -14 -10 -14 -5 0 -10 9 -10 21 0 11 5 17 10 14 6 -3 10
-13 10 -21z m320 -19 c-7 -9 -15 -13 -18 -10 -3 2 1 11 8 20 7 9 15 13 18 10
3 -2 -1 -11 -8 -20z m-110 5 c0 -5 -2 -10 -4 -10 -3 0 -8 5 -11 10 -3 6 -1 10
4 10 6 0 11 -4 11 -10z m2186 -44 c4 -11 2 -22 -5 -24 -17 -6 -13 -20 7 -25
13 -4 11 -5 -5 -6 -13 0 -23 3 -23 8 0 5 -7 17 -16 25 -12 12 -20 14 -35 5
-16 -8 -29 -7 -56 6 -46 22 -31 31 57 31 61 0 71 -3 76 -20z m-186 -6 c10 -18
8 -20 -23 -20 -37 0 -69 24 -45 33 29 12 58 6 68 -13z m-497 -6 c-7 -19 12
-18 27 1 9 11 16 13 24 5 13 -13 49 -13 63 1 7 7 17 7 29 1 11 -6 27 -13 37
-16 10 -3 15 -11 12 -16 -4 -7 7 -10 32 -9 21 2 47 -2 57 -8 19 -10 9 -11
-301 -29 -98 -6 -113 -5 -113 9 0 17 -24 29 -44 21 -8 -3 -17 0 -21 5 -10 17
-25 3 -25 -23 0 -15 -7 -26 -19 -29 -26 -7 -27 -5 -23 43 4 38 6 40 36 40 76
0 166 6 172 12 3 4 19 6 34 6 19 -1 27 -5 23 -14z m391 -13 c-2 -3 -12 3 -22
13 -16 17 -16 18 5 5 12 -7 20 -15 17 -18z m-2820 -5 c-16 -12 -16 -13 1 -20
10 -4 23 -2 29 4 17 17 27 11 16 -9 -13 -26 0 -33 48 -25 25 4 48 1 63 -7 24
-13 23 -13 -16 -20 -47 -9 -183 0 -191 12 -3 5 9 9 25 9 32 0 42 16 16 26 -18
7 -20 41 -2 47 21 8 29 -4 11 -17z m-77 -21 c0 -16 -53 -30 -84 -22 -10 3 -4
5 15 6 21 1 32 6 32 16 0 8 8 15 18 15 10 0 19 -7 19 -15z m413 6 l45 -8 -40
-2 c-22 -1 -64 -4 -94 -8 -37 -4 -52 -3 -48 5 4 5 1 13 -5 15 -21 9 93 6 142
-2z m2665 -11 c-108 -11 -243 -11 -250 0 -4 7 50 9 157 8 131 -1 149 -3 93 -8z
m125 -60 c0 -5 -10 -10 -22 -10 -19 0 -20 2 -8 10 19 13 30 13 30 0z m-393
-13 c-64 -7 -92 -6 -100 2 -8 8 15 11 89 10 l99 -2 -88 -10z m226 6 c-18 -2
-48 -2 -65 0 -18 2 -4 4 32 4 36 0 50 -2 33 -4z m90 0 c-7 -2 -19 -2 -25 0 -7
3 -2 5 12 5 14 0 19 -2 13 -5z m-1637 -23 c124 0 194 -11 194 -31 0 -5 5 -9
10 -9 6 0 10 6 10 14 0 8 7 17 16 20 26 10 174 7 174 -4 0 -15 48 -43 60 -35
8 5 6 13 -6 26 -16 18 -16 19 10 19 15 0 25 -4 21 -9 -3 -5 -1 -12 5 -16 5 -3
10 2 10 12 0 16 10 18 93 18 55 0 92 -4 92 -10 0 -5 -4 -25 -9 -43 -8 -33 -40
-50 -70 -39 -8 3 -39 2 -68 -2 -29 -5 -55 -5 -58 -1 -8 11 -160 18 -166 8 -4
-6 -11 -5 -17 1 -17 17 -42 13 -71 -10 -20 -15 -30 -18 -40 -10 -17 15 -289
17 -294 2 -2 -7 -11 -6 -26 4 -16 11 -42 14 -92 11 -63 -4 -83 2 -84 24 0 3
34 4 75 2 65 -3 75 -1 75 13 0 15 3 15 15 5 12 -10 19 -10 27 -2 14 14 12 14
-95 17 -37 1 -70 -1 -72 -5 -3 -4 -25 -3 -51 2 -49 11 -154 2 -154 -12 0 -14
18 -21 25 -10 4 7 12 7 25 0 10 -5 39 -10 65 -10 27 0 44 -4 40 -10 -3 -5 -77
-8 -185 -6 -167 4 -182 2 -205 -16 -19 -15 -24 -16 -19 -4 3 9 2 16 -4 16 -6
0 -12 -6 -14 -12 -3 -8 -10 -4 -17 10 -7 13 -10 27 -6 30 4 4 58 8 120 8 113
2 145 8 128 25 -6 6 -37 5 -79 -1 -80 -11 -130 -13 -121 -3 4 3 2 12 -4 19 -8
10 46 12 285 7 245 -5 296 -4 296 7 0 11 3 11 12 2 8 -8 55 -12 144 -12z
m-1202 0 c15 -5 26 -17 26 -28 0 -12 11 -21 32 -27 41 -12 51 -45 15 -45 -35
0 -113 35 -120 53 -3 9 -22 19 -42 23 -44 8 -38 15 18 25 23 3 43 7 44 8 1 0
13 -3 27 -9z m376 -10 c-6 -11 -18 -20 -28 -20 -10 -1 -5 -6 13 -14 l30 -13
-45 -13 c-25 -7 -56 -12 -69 -11 -13 2 -27 -3 -32 -10 -6 -10 -13 -9 -34 5
-25 17 -26 18 -10 37 10 10 22 16 26 13 5 -3 6 2 3 10 -4 9 -20 17 -38 18 -41
2 60 14 137 16 55 2 57 1 47 -18z m1828 14 c-10 -10 -89 -13 -83 -3 4 5 25 9
47 9 23 0 39 -3 36 -6z m-4215 -11 c-7 -2 -21 -2 -30 0 -10 3 -4 5 12 5 17 0
24 -2 18 -5z m310 0 c-7 -2 -19 -2 -25 0 -7 3 -2 5 12 5 14 0 19 -2 13 -5z
m72 -3 c17 -7 15 -9 -12 -9 -17 -1 -35 4 -38 9 -7 12 22 12 50 0z m263 -6 c18
-3 30 -9 27 -15 -8 -12 -122 -12 -130 1 -4 6 -21 8 -38 5 -18 -2 -45 1 -60 8
-25 10 -15 12 70 9 54 -1 113 -5 131 -8z m1093 6 c58 0 79 -12 39 -23 -11 -3
-20 -10 -20 -16 0 -7 26 -11 70 -11 39 0 70 -3 70 -7 0 -15 -55 -33 -100 -33
-25 0 -50 -4 -56 -10 -6 -6 -18 -4 -34 7 -31 22 -79 25 -105 7 -30 -22 -52
-17 -94 21 -44 40 -56 42 -164 23 -69 -12 -76 -15 -63 -28 14 -13 10 -15 -32
-12 -64 4 -81 10 -62 22 11 7 8 11 -13 19 -40 15 -77 14 -77 -3 0 -10 -11 -13
-42 -10 -58 5 -248 16 -276 16 -16 0 -22 5 -20 17 3 14 22 16 173 14 432 -6
699 -1 714 13 3 3 11 2 19 -1 7 -3 40 -5 73 -5z m712 3 c-7 -2 -19 -2 -25 0
-7 3 -2 5 12 5 14 0 19 -2 13 -5z m1537 -3 c0 -5 -4 -10 -10 -10 -5 0 -10 5
-10 10 0 6 5 10 10 10 6 0 10 -4 10 -10z m50 0 c0 -5 -9 -10 -21 -10 -11 0
-17 5 -14 10 3 6 13 10 21 10 8 0 14 -4 14 -10z m-3320 -10 c0 -5 -4 -10 -10
-10 -5 0 -10 5 -10 10 0 6 5 10 10 10 6 0 10 -4 10 -10z m3863 -17 c-7 -2 -21
-2 -30 0 -10 3 -4 5 12 5 17 0 24 -2 18 -5z m-363 -7 c0 -3 -4 -8 -10 -11 -5
-3 -10 -1 -10 4 0 6 5 11 10 11 6 0 10 -2 10 -4z m-130 -16 c0 -11 -6 -13 -72
-14 -48 -1 -64 8 -30 17 33 9 102 7 102 -3z m-2657 -20 c9 0 17 -4 17 -10 0
-13 -107 -13 -115 -1 -6 11 31 20 60 15 11 -2 28 -4 38 -4z m-1173 -20 c0 -13
-11 -13 -30 0 -12 8 -11 10 8 10 12 0 22 -4 22 -10z m248 -6 c12 -4 22 -11 22
-16 0 -6 -9 -7 -22 -2 -33 11 -148 13 -148 2 0 -5 -4 -6 -10 -3 -5 3 -10 10
-10 16 0 10 131 12 168 3z m187 -14 c3 -5 2 -10 -4 -10 -5 0 -13 5 -16 10 -3
6 -2 10 4 10 5 0 13 -4 16 -10z m188 -7 c-7 -2 -19 -2 -25 0 -7 3 -2 5 12 5
14 0 19 -2 13 -5z m-392 -389 c3 -2 105 -4 227 -5 187 -1 222 -3 226 -16 6
-14 -33 -15 -346 -8 -194 4 -411 10 -483 12 -71 2 -143 4 -160 4 -285 -1 -381
3 -415 18 -18 7 113 9 460 5 267 -4 488 -8 491 -10z m754 -14 c4 -7 -2 -9 -19
-4 -16 4 -26 2 -26 -5 0 -16 -87 -14 -93 2 -3 9 -7 9 -19 -1 -10 -8 -19 -9
-22 -3 -3 5 0 12 6 14 25 10 167 7 173 -3z m1251 -12 c-9 -5 -26 -6 -39 -2
-21 7 -20 8 8 14 36 8 54 1 31 -12z m223 13 c23 -15 -83 -23 -141 -11 -18 4
50 17 92 19 19 0 41 -3 49 -8z m719 -7 c50 -3 92 -10 92 -14 0 -17 -58 -19
-195 -10 -153 11 -153 11 -270 8 -44 -1 -93 2 -110 7 l-30 8 29 6 c34 7 349 4
484 -5z m-2438 -4 c0 -5 -5 -10 -11 -10 -5 0 -7 5 -4 10 3 6 8 10 11 10 2 0 4
-4 4 -10z m1280 0 c0 -5 -9 -10 -19 -10 -11 0 -23 5 -26 10 -4 6 5 10 19 10
14 0 26 -4 26 -10z m1559 4 c56 -11 33 -22 -56 -26 -90 -4 -139 6 -112 23 16
10 122 12 168 3z m169 -6 c-3 -7 -14 -14 -26 -16 -16 -3 -20 1 -16 12 7 19 48
22 42 4z m102 2 c-36 -11 -50 -11 -50 0 0 6 17 10 38 9 33 -1 34 -2 12 -9z
m220 0 c0 -7 -21 -10 -55 -8 -71 4 -71 18 0 18 32 0 55 -4 55 -10z m90 6 c0
-11 -19 -15 -25 -6 -3 5 1 10 9 10 9 0 16 -2 16 -4z m-2259 -32 c12 -34 4 -42
-21 -19 -15 14 -17 21 -9 32 16 18 18 17 30 -13z m59 -64 c0 -5 -5 -10 -11
-10 -5 0 -7 5 -4 10 3 6 8 10 11 10 2 0 4 -4 4 -10z m-2582 -27 c-10 -2 -28
-2 -40 0 -13 2 -5 4 17 4 22 1 32 -1 23 -4z m190 0 c-15 -2 -42 -2 -60 0 -18
2 -6 4 27 4 33 0 48 -2 33 -4z m240 -10 c-10 -2 -28 -2 -40 0 -13 2 -5 4 17 4
22 1 32 -1 23 -4z m2172 -3 c0 -5 -4 -10 -10 -10 -5 0 -10 5 -10 10 0 6 5 10
10 10 6 0 10 -4 10 -10z m-2900 -9 c43 -8 41 -9 -27 -10 -43 0 -73 3 -73 9 0
12 36 12 100 1z m103 -8 c-7 -2 -21 -2 -30 0 -10 3 -4 5 12 5 17 0 24 -2 18
-5z m160 0 c-13 -2 -35 -2 -50 0 -16 2 -5 4 22 4 28 0 40 -2 28 -4z m1724 1
c-3 -3 -12 -4 -19 -1 -8 3 -5 6 6 6 11 1 17 -2 13 -5z m193 -4 c0 -5 -9 -10
-19 -10 -11 0 -23 5 -26 10 -4 6 5 10 19 10 14 0 26 -4 26 -10z m-327 -7 c-7
-2 -19 -2 -25 0 -7 3 -2 5 12 5 14 0 19 -2 13 -5z m1091 -18 c3 -8 1 -15 -3
-15 -5 0 -11 7 -15 15 -3 8 -1 15 3 15 5 0 11 -7 15 -15z m1433 -77 c-3 -8 -6
-5 -6 6 -1 11 2 17 5 13 3 -3 4 -12 1 -19z m140 16 c-3 -3 -12 -4 -19 -1 -8 3
-5 6 6 6 11 1 17 -2 13 -5z m367 -55 c-9 -15 -34 -10 -34 6 0 9 -9 15 -25 15
-26 0 -33 14 -15 25 6 4 17 1 25 -5 12 -10 16 -9 21 4 5 14 9 12 20 -10 8 -14
11 -30 8 -35z m316 51 c-8 -5 -26 -9 -40 -9 -23 0 -23 1 -5 9 11 5 29 9 40 9
17 1 17 -1 5 -9z m193 -31 c-5 -5 -22 -11 -38 -15 -27 -5 -30 -3 -32 23 l-1
28 14 -25 c7 -14 13 -19 14 -12 0 6 7 12 15 12 9 0 19 8 23 18 6 16 7 16 10
-2 2 -10 0 -22 -5 -27z m-130 5 c-9 -21 -57 -32 -51 -12 4 13 49 40 55 34 2
-2 0 -12 -4 -22z m-1016 -140 c-3 -3 -12 -4 -19 -1 -8 3 -5 6 6 6 11 1 17 -2
13 -5z m101 -1 c-10 -2 -26 -2 -35 0 -10 3 -2 5 17 5 19 0 27 -2 18 -5z m109
1 c-3 -3 -12 -4 -19 -1 -8 3 -5 6 6 6 11 1 17 -2 13 -5z m-680 -24 c14 -11 22
-20 17 -20 -5 0 -3 -4 5 -9 18 -11 5 -32 -15 -24 -9 3 -14 13 -11 24 6 23 -10
28 -96 26 -63 -2 -68 -4 -86 -32 -10 -17 -31 -39 -47 -50 -24 -15 -26 -15 -15
-2 20 25 6 47 -28 47 -40 0 -48 16 -14 28 26 10 25 10 -19 11 -55 1 -78 -6
-78 -25 0 -10 -13 -14 -45 -14 -25 0 -45 5 -45 10 0 6 9 10 20 10 11 0 20 6
20 14 0 8 5 16 10 18 6 2 98 4 206 6 183 3 196 1 221 -18z m173 10 c-20 -13
-117 -13 -125 0 -4 6 21 10 67 10 51 0 68 -3 58 -10z m88 3 c-10 -2 -26 -2
-35 0 -10 3 -2 5 17 5 19 0 27 -2 18 -5z m-738 -14 c0 -5 -5 -7 -11 -4 -5 4
-19 -1 -30 -11 -22 -19 -33 -15 -23 10 7 18 64 23 64 5z m457 -35 c-9 -9 -28
6 -21 18 4 6 10 6 17 -1 6 -6 8 -13 4 -17z m623 11 c0 -8 -4 -15 -8 -15 -5 0
-9 7 -9 15 0 8 4 15 9 15 4 0 8 -7 8 -15z m-654 -16 c3 -6 0 -15 -7 -20 -23
-14 -36 -10 -16 5 18 14 18 14 0 19 -15 4 -16 5 -1 6 9 0 20 -4 24 -10z m129
0 c11 -17 0 -20 -21 -4 -17 13 -17 14 -2 15 9 0 20 -5 23 -11z m60 1 c3 -5 -1
-10 -9 -10 -9 0 -16 5 -16 10 0 6 4 10 9 10 6 0 13 -4 16 -10z m275 0 l25 -8
-25 0 c-14 0 -36 4 -50 8 l-25 8 25 0 c14 0 36 -4 50 -8z m-426 -22 c-5 -8 -2
-9 9 -5 9 3 19 2 22 -2 6 -10 -18 -21 -46 -21 -21 0 -22 1 -13 24 3 9 13 16
21 16 8 0 11 -5 7 -12z m76 -24 c0 -8 5 -14 11 -14 5 0 7 -4 4 -10 -3 -5 -9
-10 -13 -10 -12 0 -33 40 -27 51 8 13 25 2 25 -17z m433 19 c-7 -2 -19 -2 -25
0 -7 3 -2 5 12 5 14 0 19 -2 13 -5z m215 0 c-10 -2 -28 -2 -40 0 -13 2 -5 4
17 4 22 1 32 -1 23 -4z m-586 -14 c17 -9 18 -13 7 -20 -20 -12 -23 -11 -37 11
-14 23 -2 26 30 9z m-604 -26 c-10 -2 -26 -2 -35 0 -10 3 -2 5 17 5 19 0 27
-2 18 -5z m87 -3 c-3 -5 -11 -10 -16 -10 -6 0 -7 5 -4 10 3 6 11 10 16 10 6 0
7 -4 4 -10z m341 -17 c-7 -8 -56 9 -51 18 3 4 17 3 30 -3 14 -6 23 -13 21 -15z
m-66 7 c0 -5 -2 -10 -4 -10 -3 0 -8 5 -11 10 -3 6 -1 10 4 10 6 0 11 -4 11
-10z m1760 -6 c0 -3 -7 -12 -15 -20 -16 -17 -18 -14 -9 10 6 15 24 23 24 10z
m-230 -28 c0 -9 -30 -14 -35 -6 -4 6 3 10 14 10 12 0 21 -2 21 -4z m-232 -13
c-15 -2 -42 -2 -60 0 -18 2 -6 4 27 4 33 0 48 -2 33 -4z m-303 -11 c-12 -12
-553 -27 -542 -16 11 11 126 19 352 22 127 2 196 0 190 -6z m-755 -21 c0 -5
-39 -8 -87 -8 l-88 0 70 7 c39 3 78 7 88 8 9 1 17 -2 17 -7z m-320 -11 c-14
-4 -63 -8 -110 -7 -75 0 -78 1 -30 6 91 10 169 10 140 1z m123 3 c-13 -2 -33
-2 -45 0 -13 2 -3 4 22 4 25 0 35 -2 23 -4z m814 -19 c-3 -3 -12 -4 -19 -1 -8
3 -5 6 6 6 11 1 17 -2 13 -5z m-117 -454 c0 -5 -4 -10 -10 -10 -5 0 -10 5 -10
10 0 6 5 10 10 10 6 0 10 -4 10 -10z m-22 -42 c-16 -24 -39 -30 -45 -12 -2 6
7 16 19 22 35 17 42 14 26 -10z m-49 -37 c12 -8 8 -18 -23 -55 -20 -25 -41
-46 -46 -46 -5 0 -12 -9 -15 -20 -4 -11 -11 -18 -16 -14 -6 3 -16 -2 -23 -12
-18 -24 -29 -2 -14 31 8 18 14 22 20 13 5 -9 8 -8 8 6 0 13 5 16 16 12 12 -5
15 -2 10 10 -8 22 11 44 31 37 11 -4 14 -3 9 6 -4 6 -2 18 4 26 14 17 20 18
39 6z m-294 -141 c-9 -16 -20 -30 -26 -30 -5 0 -2 14 8 30 9 17 21 30 25 30 5
0 2 -13 -7 -30z m455 -7 c-1 -5 -27 -37 -59 -72 -52 -58 -81 -72 -81 -40 0 6
4 8 10 4 5 -3 17 7 27 22 20 30 84 92 96 93 4 0 7 -3 7 -7z m-660 -37 c0 -2
-7 -6 -15 -10 -8 -3 -15 -1 -15 4 0 6 7 10 15 10 8 0 15 -2 15 -4z m820 -6 c0
-5 -4 -10 -10 -10 -5 0 -10 5 -10 10 0 6 5 10 10 10 6 0 10 -4 10 -10z m-950
-40 c0 -5 -4 -10 -9 -10 -6 0 -13 5 -16 10 -3 6 1 10 9 10 9 0 16 -4 16 -10z
m870 -15 c0 -15 -6 -25 -14 -25 -7 0 -16 -9 -19 -21 -3 -12 -10 -18 -16 -14
-6 3 -11 -1 -11 -9 0 -9 -2 -16 -4 -16 -2 0 -13 -3 -23 -6 -15 -6 -16 -4 -5 7
19 20 14 31 -10 24 -23 -7 -23 -7 -3 8 14 11 22 12 27 4 8 -13 37 13 57 51 15
29 21 28 21 -3z m729 -89 c-9 -8 -10 -7 -5 7 3 10 7 26 7 35 1 9 4 6 6 -7 3
-13 -1 -28 -8 -35z m-47 12 c-7 -7 -12 -8 -12 -2 0 14 12 26 19 19 2 -3 -1
-11 -7 -17z m-802 -50 c-12 -10 -26 -15 -31 -12 -5 3 -9 -1 -9 -9 0 -7 -11
-24 -25 -37 -14 -13 -25 -18 -25 -12 0 7 -8 12 -17 11 -10 0 -13 -3 -7 -5 7
-3 10 -14 7 -24 -3 -11 -9 -17 -14 -14 -5 3 -18 -5 -28 -17 -16 -20 -21 -21
-35 -10 -21 17 -20 30 2 38 9 3 27 17 39 31 15 17 29 23 43 19 16 -4 19 -3 10
7 -7 10 -6 17 5 26 12 10 15 10 16 -1 0 -8 4 -4 9 8 6 15 15 20 28 16 14 -3
21 2 26 19 6 22 7 22 18 4 9 -16 7 -23 -12 -38z m770 32 c0 -5 -5 -10 -11 -10
-5 0 -7 5 -4 10 3 6 8 10 11 10 2 0 4 -4 4 -10z m260 -85 c0 -8 -4 -15 -10
-15 -5 0 -7 7 -4 15 4 8 8 15 10 15 2 0 4 -7 4 -15z m-328 -47 c-9 -9 -12 -7
-12 12 0 19 3 21 12 12 9 -9 9 -15 0 -24z m-1051 -21 c-8 -8 -11 -7 -11 4 0
20 13 34 18 19 3 -7 -1 -17 -7 -23z m1359 29 c0 -3 -4 -8 -10 -11 -5 -3 -10
-1 -10 4 0 6 5 11 10 11 6 0 10 -2 10 -4z m-26 -72 c-43 -46 -42 -33 1 20 16
21 31 33 33 28 1 -5 -14 -26 -34 -48z m76 37 c0 -12 -20 -25 -27 -18 -7 7 6
27 18 27 5 0 9 -4 9 -9z m-1250 -15 c0 -7 -9 -21 -20 -31 -20 -18 -21 -18 -18
11 1 21 8 30 20 31 10 1 18 -4 18 -11z m990 4 c0 -5 -4 -10 -10 -10 -5 0 -10
5 -10 10 0 6 5 10 10 10 6 0 10 -4 10 -10z m160 -5 c-7 -9 -15 -13 -17 -11 -7
7 7 26 19 26 6 0 6 -6 -2 -15z m-299 -22 c-8 -15 -10 -15 -11 -2 0 17 10 32
18 25 2 -3 -1 -13 -7 -23z m139 -13 c0 -5 -4 -10 -10 -10 -5 0 -10 5 -10 10 0
6 5 10 10 10 6 0 10 -4 10 -10z m140 6 c0 -3 -4 -8 -10 -11 -5 -3 -10 -1 -10
4 0 6 5 11 10 11 6 0 10 -2 10 -4z m-14 -61 c-17 -17 -21 -9 -10 20 5 11 10
13 17 6 6 -6 4 -15 -7 -26z m-26 -4 c0 -11 -12 -33 -26 -48 l-27 -28 8 25 c4
14 12 28 18 31 5 4 7 14 4 23 -4 10 -1 16 8 16 8 0 15 -9 15 -19z m-168 -63
c-7 -7 -12 -8 -12 -2 0 14 12 26 19 19 2 -3 -1 -11 -7 -17z m-758 -60 c8 -6 7
-10 -2 -16 -13 -9 -6 -42 9 -42 5 0 9 -5 9 -11 0 -5 -4 -7 -10 -4 -5 3 -10 1
-10 -5 0 -6 -5 -8 -11 -5 -6 4 -8 14 -5 22 4 9 2 21 -3 27 -5 6 -7 25 -3 41 3
18 7 24 10 15 3 -8 10 -18 16 -22z m786 2 c0 -5 -12 -10 -27 -9 l-28 1 25 8
c14 4 26 8 28 9 1 1 2 -3 2 -9z m50 -20 c0 -5 -2 -10 -4 -10 -3 0 -8 5 -11 10
-3 6 -1 10 4 10 6 0 11 -4 11 -10z m-35 -10 c-3 -5 -11 -10 -16 -10 -6 0 -7 5
-4 10 3 6 11 10 16 10 6 0 7 -4 4 -10z m-35 -30 c0 -5 -5 -10 -11 -10 -5 0 -7
5 -4 10 3 6 8 10 11 10 2 0 4 -4 4 -10z m-860 -240 c0 -5 -5 -10 -11 -10 -5 0
-7 5 -4 10 3 6 8 10 11 10 2 0 4 -4 4 -10z m-39 -36 c-5 -16 -10 -21 -10 -12
-1 18 10 51 15 45 2 -1 -1 -16 -5 -33z m87 -9 c-3 -3 -9 2 -12 12 -6 14 -5 15
5 6 7 -7 10 -15 7 -18z m-28 -40 c0 -18 -5 -24 -17 -22 -10 1 -19 7 -19 12 -1
6 2 9 7 7 5 -1 12 5 15 13 9 22 14 18 14 -10z m-100 -78 c0 -5 -4 -5 -10 -2
-5 3 -10 14 -10 23 0 15 2 15 10 2 5 -8 10 -19 10 -23z"/>
<path d="M4640 5642 c0 -5 -11 -15 -26 -22 l-25 -14 33 -16 c32 -15 33 -15 46
7 11 20 10 26 -2 38 -16 17 -26 19 -26 7z"/>
<path d="M4442 5628 c-14 -14 -16 -42 -2 -33 14 9 32 45 22 45 -4 0 -13 -5
-20 -12z"/>
<path d="M4490 5630 c-11 -7 -12 -12 -3 -21 13 -13 33 -4 33 17 0 16 -9 18
-30 4z"/>
<path d="M3770 5595 c0 -36 14 -60 29 -51 16 10 13 28 -9 56 l-20 25 0 -30z"/>
<path d="M4457 5583 c-15 -14 -7 -43 12 -43 17 0 48 26 40 34 -10 9 -46 16
-52 9z"/>
<path d="M4577 5560 c-4 -16 0 -20 19 -20 29 0 31 15 5 29 -15 9 -20 7 -24 -9z"/>
<path d="M4325 5520 c-3 -5 1 -10 9 -10 8 0 18 5 21 10 3 6 -1 10 -9 10 -8 0
-18 -4 -21 -10z"/>
<path d="M5120 5490 c-11 -7 -8 -10 15 -9 17 0 39 4 50 9 16 7 14 9 -15 9 -19
0 -42 -4 -50 -9z"/>
<path d="M4986 5481 c5 -5 29 -5 54 -1 l45 7 -54 2 c-33 0 -51 -3 -45 -8z"/>
<path d="M4665 5380 c-3 -5 -1 -10 4 -10 6 0 11 5 11 10 0 6 -2 10 -4 10 -3 0
-8 -4 -11 -10z"/>
<path d="M4332 5364 c-6 -11 -32 -18 -83 -24 -70 -7 -68 -7 54 -9 109 -1 129
1 134 15 8 21 -14 34 -59 34 -24 0 -40 -6 -46 -16z"/>
<path d="M3520 5354 c0 -8 5 -12 10 -9 6 4 8 11 5 16 -9 14 -15 11 -15 -7z"/>
<path d="M4560 5360 c8 -5 18 -6 22 -4 4 3 8 0 8 -5 0 -15 13 -14 36 3 17 13
15 14 -30 14 -31 0 -44 -3 -36 -8z"/>
<path d="M3968 5345 c30 -22 166 -18 152 4 -7 13 -11 13 -26 0 -13 -11 -18
-11 -21 -1 -6 15 -35 16 -51 0 -9 -9 -12 -9 -12 0 0 7 -14 12 -32 12 -32 0
-32 0 -10 -15z"/>
<path d="M3890 5740 c0 -13 30 -13 50 0 11 7 7 10 -17 10 -18 0 -33 -4 -33
-10z"/>
<path d="M4258 5743 c6 -2 18 -2 25 0 6 3 1 5 -13 5 -14 0 -19 -2 -12 -5z"/>
<path d="M2630 5730 c0 -13 40 -13 60 0 11 7 5 10 -22 10 -21 0 -38 -4 -38
-10z"/>
<path d="M2745 5731 c-7 -12 12 -24 25 -16 11 7 4 25 -10 25 -5 0 -11 -4 -15
-9z"/>
<path d="M2126 5721 c-6 -9 64 -24 73 -15 8 8 -22 24 -46 24 -12 0 -24 -4 -27
-9z"/>
<path d="M778 5683 c7 -3 16 -2 19 1 4 3 -2 6 -13 5 -11 0 -14 -3 -6 -6z"/>
<path d="M4955 5660 c3 -5 14 -10 23 -10 15 0 15 2 2 10 -20 13 -33 13 -25 0z"/>
<path d="M1975 5630 c-3 -6 1 -13 10 -16 19 -8 30 0 20 15 -8 14 -22 14 -30 1z"/>
<path d="M2610 5624 c0 -10 7 -14 22 -12 32 5 35 28 4 28 -17 0 -26 -5 -26
-16z"/>
<path d="M4870 5622 c0 -5 11 -15 25 -22 20 -11 28 -11 38 -1 9 9 9 14 -3 21
-19 12 -60 13 -60 2z"/>
<path d="M360 5610 c0 -5 5 -10 11 -10 5 0 7 5 4 10 -3 6 -8 10 -11 10 -2 0
-4 -4 -4 -10z"/>
<path d="M1760 5596 c0 -2 24 -21 53 -42 28 -20 57 -43 62 -49 16 -19 204 -58
219 -46 8 7 16 7 23 0 5 -5 52 -13 103 -16 77 -5 92 -4 88 8 -2 8 -17 15 -31
17 -28 3 -35 20 -17 38 8 8 6 15 -4 23 -18 15 -36 6 -36 -18 0 -25 -26 -46
-36 -30 -4 6 0 16 10 21 9 5 16 12 16 16 -1 26 -25 32 -151 41 -73 6 -156 17
-184 25 -46 15 -115 21 -115 12z"/>
<path d="M1026 5572 c-10 -17 12 -35 38 -30 20 4 26 1 24 -10 -2 -11 10 -19
37 -27 43 -11 199 -14 210 -3 3 3 0 15 -7 27 -16 26 -50 28 -47 4 3 -32 -1
-32 -33 -2 -25 22 -39 28 -58 24 -14 -3 -42 1 -63 10 -39 16 -93 20 -101 7z"/>
<path d="M930 5510 c0 -5 5 -10 11 -10 5 0 7 5 4 10 -3 6 -8 10 -11 10 -2 0
-4 -4 -4 -10z"/>
<path d="M1305 5440 c3 -5 13 -10 21 -10 8 0 12 5 9 10 -3 6 -13 10 -21 10 -8
0 -12 -4 -9 -10z"/>
<path d="M2070 5430 c0 -5 4 -10 9 -10 6 0 13 5 16 10 3 6 -1 10 -9 10 -9 0
-16 -4 -16 -10z"/>
<path d="M100 5335 c-7 -8 -8 -15 -2 -15 5 0 15 7 22 15 7 8 8 15 2 15 -5 0
-15 -7 -22 -15z"/>
<path d="M447 5343 c-12 -12 -7 -22 8 -17 8 4 15 10 15 15 0 11 -14 12 -23 2z"/>
<path d="M1315 4600 c3 -5 10 -10 16 -10 5 0 9 5 9 10 0 6 -7 10 -16 10 -8 0
-12 -4 -9 -10z"/>
<path d="M2008 4598 c9 -9 15 -9 24 0 9 9 7 12 -12 12 -19 0 -21 -3 -12 -12z"/>
<path d="M2090 4600 c0 -5 5 -10 10 -10 6 0 10 5 10 10 0 6 -4 10 -10 10 -5 0
-10 -4 -10 -10z"/>
<path d="M4320 4600 c0 -5 5 -10 11 -10 5 0 7 5 4 10 -3 6 -8 10 -11 10 -2 0
-4 -4 -4 -10z"/>
<path d="M4790 4590 c0 -16 27 -23 58 -15 l27 8 -25 7 c-37 12 -60 11 -60 0z"/>
<path d="M8 4457 c-2 -73 -2 -149 0 -169 3 -35 4 -37 28 -28 14 6 49 8 77 5
29 -2 55 -4 60 -5 4 0 7 -6 7 -14 0 -9 -8 -12 -24 -9 -28 6 -87 -17 -80 -29 3
-4 -5 -8 -18 -8 -14 0 -18 3 -11 8 8 5 3 11 -13 19 l-24 11 0 -79 c0 -43 3
-79 6 -79 3 0 12 7 20 15 11 11 12 15 3 15 -9 0 -10 3 -3 10 6 6 25 7 43 4 23
-5 29 -10 22 -17 -17 -17 -13 -27 10 -27 23 0 21 -18 -4 -34 -12 -7 -26 -5
-53 7 -20 10 -39 15 -43 12 -3 -4 -5 -316 -3 -693 l2 -687 88 -5 c61 -3 96
-11 115 -23 15 -10 38 -22 52 -27 23 -9 25 -8 15 9 -15 29 -12 77 5 91 8 7 15
18 15 24 0 7 17 29 38 49 32 31 45 37 80 37 29 0 45 5 48 15 4 8 10 12 15 9 5
-3 9 0 9 6 0 6 12 3 26 -7 27 -17 27 -17 15 5 -14 26 -6 27 44 6 30 -12 43
-13 60 -4 11 6 25 10 31 9 5 -1 17 1 27 6 10 4 21 5 24 1 4 -3 12 7 19 24 8
19 20 30 33 30 11 0 23 5 26 10 3 6 17 7 30 4 12 -3 26 -1 29 5 11 18 29 12
22 -6 -6 -17 -5 -17 8 0 15 19 44 25 286 57 164 22 217 36 238 60 12 13 13 13
8 -2 -5 -16 2 -18 44 -18 40 0 48 3 44 15 -4 8 -2 15 4 15 6 0 12 -5 14 -12 3
-7 9 -8 18 -3 25 16 138 16 154 0 8 -8 18 -15 22 -15 4 0 12 -7 19 -16 8 -12
17 -14 28 -7 14 7 7 14 -37 35 -45 22 -53 31 -49 47 7 26 17 26 51 3 15 -10
34 -22 42 -26 19 -10 -31 35 -55 50 -21 12 -12 34 13 34 15 0 112 -83 112 -96
0 -3 -9 0 -19 6 -11 5 -23 10 -28 10 -4 0 24 -18 62 -39 39 -21 130 -75 204
-120 74 -44 140 -81 148 -81 7 0 32 -12 56 -27 48 -31 152 -73 179 -73 10 0
18 5 18 11 0 5 -4 8 -9 5 -14 -9 -41 4 -41 19 0 7 7 16 16 19 22 9 24 8 24 -9
0 -18 20 -20 20 -2 0 6 8 2 18 -9 9 -12 31 -28 47 -36 17 -8 83 -45 149 -81
126 -71 126 -71 126 -59 0 15 -93 76 -112 75 -10 -1 -16 2 -13 7 3 5 0 12 -6
16 -8 4 -9 3 -5 -4 10 -17 1 -15 -44 8 -25 13 -40 28 -42 42 -2 18 -11 24 -38
28 -22 4 -34 11 -32 19 2 9 -3 11 -13 7 -19 -7 -55 14 -55 32 0 16 -24 10 -26
-6 -3 -23 -4 -24 -19 -12 -9 7 -13 20 -10 29 3 11 -5 23 -24 34 -33 19 -45 22
-36 7 3 -5 1 -10 -5 -10 -7 0 -10 7 -7 14 8 19 -46 63 -205 168 -27 17 -48 36
-48 42 0 6 -22 27 -48 46 -26 19 -68 51 -93 72 -26 21 -57 38 -69 38 -21 0
-20 -3 14 -36 36 -35 42 -54 18 -62 -7 -2 -12 3 -12 11 0 17 -34 32 -50 22
-15 -9 -12 -31 6 -49 8 -9 11 -16 6 -16 -5 0 -15 7 -22 15 -7 8 -18 15 -26 15
-7 0 -16 4 -19 10 -3 5 0 7 8 4 18 -7 43 46 26 56 -8 6 -7 15 5 34 9 14 22 37
30 50 l15 23 49 -47 c26 -25 70 -61 98 -79 l49 -32 -45 38 c-66 55 -140 135
-134 145 10 16 30 6 84 -43 l55 -50 -42 21 c-24 11 -43 18 -43 15 0 -9 78 -44
84 -37 4 3 10 2 14 -4 7 -10 261 -196 342 -250 55 -37 325 -194 333 -194 8 0
2 26 -10 41 -5 8 -13 26 -17 41 -3 15 -22 43 -40 63 -19 20 -36 43 -38 51 -2
8 -7 15 -11 14 -8 -1 -60 59 -117 136 -19 26 -81 102 -137 170 -57 68 -103
128 -103 133 0 5 -7 12 -15 15 -9 3 -23 22 -31 41 -8 19 -18 35 -23 35 -5 0
-11 10 -14 22 -4 12 -9 19 -13 15 -4 -4 -13 -2 -20 4 -11 9 -10 15 3 35 9 14
18 22 21 20 2 -3 17 3 32 14 l27 19 49 -67 c27 -37 53 -71 59 -77 6 -5 23 -29
38 -51 29 -44 80 -96 77 -79 -4 20 0 35 11 35 6 0 8 -8 4 -19 -3 -11 0 -23 6
-27 8 -4 9 -3 5 4 -10 17 9 15 24 -3 6 -8 9 -22 6 -32 -3 -10 -1 -25 5 -33 8
-12 9 -10 4 8 -5 16 -2 22 9 22 8 0 21 9 29 20 8 11 17 17 20 13 4 -4 -2 -16
-13 -28 -12 -13 -17 -28 -14 -43 5 -18 9 -20 27 -11 16 9 19 9 14 -4 -3 -8 -1
-19 5 -25 8 -8 8 -15 0 -24 -7 -10 -5 -19 10 -37 l19 -25 -7 29 -7 28 26 -19
c20 -15 24 -25 20 -48 -6 -27 -4 -29 20 -24 18 3 24 1 19 -6 -17 -27 2 -64 41
-79 9 -3 16 -14 15 -24 -3 -43 1 -56 16 -44 21 18 30 62 14 72 -10 7 -10 9 0
9 6 0 12 7 12 15 0 18 -17 20 -23 3 -2 -7 -8 -10 -12 -5 -5 4 -2 13 6 20 8 6
13 11 10 10 -12 -7 -31 30 -25 49 l7 23 -23 -20 -23 -20 6 23 c4 12 10 30 13
40 4 13 -9 35 -44 73 -174 190 -221 249 -304 383 -29 46 -35 63 -27 77 10 20
39 26 39 9 0 -5 14 -32 30 -60 17 -28 28 -55 25 -60 -3 -4 -1 -10 5 -12 6 -2
12 -14 15 -28 3 -13 11 -28 20 -32 8 -5 15 -14 15 -21 0 -7 9 -18 21 -25 19
-12 20 -12 14 10 -4 13 -16 32 -26 44 -11 11 -19 24 -19 28 0 4 -18 46 -41 93
-39 82 -40 85 -22 98 18 13 19 24 15 127 -2 62 -8 118 -11 123 -4 6 -6 35 -4
65 2 30 4 60 4 65 -3 84 -10 177 -13 180 -8 9 -236 25 -345 25 -90 0 -111 3
-107 13 4 11 43 14 172 16 151 1 171 -1 204 -19 41 -21 78 -26 78 -10 0 6 -12
11 -27 11 l-28 1 29 7 c16 3 31 12 34 20 3 8 0 11 -7 7 -7 -5 -11 1 -11 16 0
24 0 24 -127 23 -147 -1 -153 0 -153 26 0 23 -33 38 -67 31 -25 -5 -30 -21
-12 -39 17 -17 -41 -26 -112 -18 -43 5 -64 12 -72 26 -15 24 -24 24 -31 1 -5
-15 -21 -18 -108 -21 -125 -4 -124 -4 -275 -2 -111 2 -124 4 -133 21 -14 26
-27 25 -35 -1 -6 -18 -12 -20 -53 -15 -26 3 -54 6 -62 6 -8 -1 -42 -1 -75 0
-33 0 -82 0 -109 0 -28 0 -60 7 -74 16 -22 15 -25 14 -39 -5 -8 -12 -19 -18
-25 -15 -6 4 -36 6 -67 5 -31 0 -80 3 -108 7 -39 7 -58 6 -72 -4 -16 -12 -21
-11 -32 2 -10 13 -9 16 10 21 17 4 19 8 10 19 -15 18 -38 18 -45 -1 -14 -35
-66 -53 -158 -54 -50 0 -106 4 -127 9 -31 9 -38 15 -43 45 -4 21 -13 35 -21
35 -8 0 -14 -6 -13 -12 2 -8 -9 -14 -24 -16 -34 -4 -36 -17 -5 -27 19 -7 17
-9 -16 -12 -44 -5 -67 10 -67 42 0 13 -7 25 -14 28 -13 5 -15 -16 -18 -126z
m2067 43 c-3 -5 -10 -10 -16 -10 -5 0 -9 5 -9 10 0 6 7 10 16 10 8 0 12 -4 9
-10z m-1627 -65 c-10 -10 -179 -14 -173 -4 4 5 45 9 92 9 48 0 84 -2 81 -5z
m-358 -9 c0 -2 -3 -11 -6 -20 -9 -23 -24 -20 -24 4 0 11 7 20 15 20 8 0 15 -2
15 -4z m1223 -3 c-7 -2 -19 -2 -25 0 -7 3 -2 5 12 5 14 0 19 -2 13 -5z m125 0
c-10 -2 -28 -2 -40 0 -13 2 -5 4 17 4 22 1 32 -1 23 -4z m227 -1 c58 -11 17
-18 -82 -14 -46 2 -83 8 -83 13 0 11 107 11 165 1z m182 -16 c-11 -9 -34 -12
-65 -9 -78 9 -73 23 9 23 64 -1 72 -2 56 -14z m-1714 -13 c-7 -2 -19 -2 -25 0
-7 3 -2 5 12 5 14 0 19 -2 13 -5z m535 -100 c4 -14 -25 -17 -54 -6 -16 6 -16
7 2 14 25 10 46 7 52 -8z m347 8 c8 -14 -12 -23 -51 -23 -39 0 -49 5 -39 21 8
13 82 15 90 2z m122 -4 c5 14 63 -3 63 -18 0 -14 -73 -10 -92 5 -25 19 -22 29
3 14 16 -10 23 -10 26 -1z m-680 -3 c-3 -3 -12 -4 -19 -1 -8 3 -5 6 6 6 11 1
17 -2 13 -5z m1058 -8 l50 -14 -69 -1 c-60 -1 -67 1 -56 14 15 18 13 18 75 1z
m138 -13 c-7 -2 -19 -2 -25 0 -7 3 -2 5 12 5 14 0 19 -2 13 -5z m326 -9 c2 -2
-21 -4 -52 -4 -31 0 -59 5 -62 10 -6 10 103 3 114 -6z m-1454 -28 c13 -14 31
-26 40 -26 9 0 13 -4 10 -10 -7 -11 -193 -14 -219 -4 -9 3 -13 10 -10 15 3 5
-3 9 -13 10 -10 0 -31 2 -48 3 -16 1 -45 3 -63 4 -29 2 -32 4 -19 17 11 10 45
15 118 18 155 6 177 3 204 -27z m1532 28 c-3 -3 -12 -4 -19 -1 -8 3 -5 6 6 6
11 1 17 -2 13 -5z m181 -1 c-10 -2 -26 -2 -35 0 -10 3 -2 5 17 5 19 0 27 -2
18 -5z m130 0 c-10 -2 -28 -2 -40 0 -13 2 -5 4 17 4 22 1 32 -1 23 -4z m-835
-23 c5 -4 4 -11 -1 -14 -6 -3 -13 -2 -17 4 -3 6 -13 6 -23 1 -57 -29 -198 -38
-224 -14 -17 15 -20 15 -41 -5 -24 -22 -67 -30 -67 -12 0 6 -7 10 -15 10 -8 0
-15 -4 -15 -10 0 -6 -42 -10 -105 -10 -87 0 -105 3 -105 15 0 8 -6 15 -14 15
-7 0 -19 7 -26 15 -10 12 -15 12 -35 -1 -28 -18 -111 -16 -107 4 2 14 -8 15
-41 3 -28 -11 -67 -4 -67 11 0 12 890 0 903 -12z m415 0 c17 0 32 -4 32 -8 0
-15 -209 -22 -211 -7 -1 16 42 25 96 20 28 -3 65 -5 83 -5z m395 0 c28 0 48
-3 44 -6 -9 -10 -207 -13 -207 -4 0 15 24 20 69 15 24 -3 66 -5 94 -5z m-658
-9 c15 -6 12 -9 -20 -14 -43 -7 -85 0 -85 14 0 11 77 11 105 0z m390 -1 c-3
-5 -17 -10 -31 -10 -14 0 -22 4 -19 10 3 6 17 10 31 10 14 0 22 -4 19 -10z
m-1812 -27 c-7 -2 -19 -2 -25 0 -7 3 -2 5 12 5 14 0 19 -2 13 -5z m1950 -30
c-7 -2 -19 -2 -25 0 -7 3 -2 5 12 5 14 0 19 -2 13 -5z m170 0 c-7 -2 -19 -2
-25 0 -7 3 -2 5 12 5 14 0 19 -2 13 -5z m-2041 -32 c95 -6 126 -15 94 -27 -10
-4 -16 -18 -16 -36 0 -28 -2 -29 -29 -23 -37 8 -71 -9 -71 -35 0 -20 -24 -28
-34 -11 -8 13 -84 51 -101 51 -10 0 -15 10 -15 30 0 35 37 74 60 63 8 -4 59
-9 112 -12z m548 -13 c0 -21 51 -38 113 -38 50 0 58 -2 53 -16 -3 -9 -6 -20
-6 -26 0 -6 -9 -8 -20 -5 -11 3 -20 1 -20 -5 0 -6 -8 -7 -17 -4 -9 4 -20 2
-23 -5 -6 -8 -13 -8 -28 0 -11 6 -30 11 -41 11 -11 0 -24 8 -29 17 -9 15 -12
15 -33 2 -30 -19 -109 -43 -129 -40 -8 2 -28 9 -45 17 -16 7 -54 13 -83 12
-37 -1 -57 3 -63 13 -6 10 -9 10 -9 2 0 -16 -26 -17 -35 -2 -4 6 1 16 11 24
11 7 19 19 19 27 0 17 232 25 249 8 7 -7 -2 -10 -27 -10 -20 0 -37 -4 -37 -9
0 -5 -13 -4 -29 2 -23 8 -33 8 -45 -3 -15 -12 -14 -14 5 -28 17 -12 26 -13 40
-4 10 7 28 12 39 12 11 0 20 4 20 8 0 4 20 7 45 7 27 -1 50 3 56 12 6 7 8 13
3 14 -14 1 29 18 49 18 9 1 17 -5 17 -11z m350 2 c-8 -5 -49 -10 -90 -10 -41
0 -82 5 -90 10 -10 7 19 10 90 10 71 0 100 -3 90 -10z m627 4 c-3 -3 -12 -4
-19 -1 -8 3 -5 6 6 6 11 1 17 -2 13 -5z m361 -42 c13 -21 13 -22 -9 -22 -17 0
-20 3 -11 12 9 9 7 15 -6 25 -11 10 -12 13 -3 11 8 -2 21 -14 29 -26z m-1068
8 c0 -5 30 -11 68 -12 63 -2 64 -2 15 -5 -57 -4 -62 -9 -35 -29 15 -12 9 -14
-47 -12 -61 3 -65 4 -66 28 -2 14 -1 28 2 33 6 11 63 9 63 -3z m438 -6 c1 -5
-7 -11 -19 -12 -12 -2 -29 -10 -36 -18 -8 -8 -20 -14 -26 -13 -9 0 -8 2 1 6
17 7 15 23 -3 23 -9 0 -18 -7 -21 -15 -4 -8 -13 -15 -21 -15 -10 0 -12 6 -7
23 4 12 11 25 17 28 15 10 112 4 115 -7z m302 11 c0 -4 -79 -45 -87 -45 -3 0
-1 5 3 11 4 7 -2 9 -17 7 -16 -2 -23 -9 -21 -20 2 -13 -4 -18 -20 -17 -13 0
-17 3 -10 6 9 3 4 10 -14 19 -15 8 -34 12 -42 9 -19 -7 -32 3 -25 20 4 12 28
15 119 15 63 0 114 -2 114 -5z m120 0 c0 -12 -43 -25 -62 -19 -16 5 -18 8 -7
15 15 9 69 13 69 4z m-597 -35 c3 -11 1 -18 -4 -14 -5 3 -9 12 -9 20 0 20 7
17 13 -6z m-543 -60 c0 -5 -5 -10 -11 -10 -5 0 -7 5 -4 10 3 6 8 10 11 10 2 0
4 -4 4 -10z m-190 -10 c0 -5 -12 -10 -27 -9 -25 0 -26 1 -8 9 27 12 35 12 35
0z m1595 -260 c3 -5 1 -10 -4 -10 -6 0 -11 5 -11 10 0 6 2 10 4 10 3 0 8 -4
11 -10z m-5 -30 c0 -12 -8 -12 -35 0 -18 8 -17 9 8 9 15 1 27 -3 27 -9z m30
-10 c0 -5 -2 -10 -4 -10 -3 0 -8 5 -11 10 -3 6 -1 10 4 10 6 0 11 -4 11 -10z
m-50 -20 c0 -5 -5 -10 -11 -10 -5 0 -7 5 -4 10 3 6 8 10 11 10 2 0 4 -4 4 -10z
m80 -10 c12 -8 9 -10 -13 -10 -16 0 -26 4 -22 10 8 12 16 12 35 0z m-60 -41
c0 -11 -4 -17 -10 -14 -5 3 -10 15 -10 26 0 11 5 17 10 14 6 -3 10 -15 10 -26z
m80 1 c0 -5 -2 -10 -4 -10 -3 0 -8 5 -11 10 -3 6 -1 10 4 10 6 0 11 -4 11 -10z
m-219 -115 c6 -11 -7 0 -30 25 -22 25 -40 50 -40 55 0 12 55 -51 70 -80z m189
50 c14 -19 14 -19 -2 -6 -10 7 -18 18 -18 24 0 6 1 8 3 6 1 -2 9 -13 17 -24z
m-272 -27 c14 -14 16 -58 2 -58 -5 0 -14 8 -19 18 -7 12 -10 13 -11 3 0 -13
28 -40 43 -41 4 0 7 10 7 21 0 18 3 19 15 9 13 -11 13 -15 0 -33 -14 -20 -21
-57 -11 -57 2 0 11 3 20 6 18 7 22 34 5 34 -5 0 -7 4 -4 10 3 6 17 -1 31 -15
14 -14 22 -30 19 -35 -4 -6 1 -7 11 -3 13 5 16 3 11 -10 -4 -11 -2 -14 7 -11
7 3 20 -6 29 -19 16 -25 110 -121 181 -185 20 -18 36 -39 36 -47 0 -8 6 -15
13 -15 6 0 22 -16 35 -35 l23 -36 -48 34 c-27 18 -56 50 -67 71 -13 27 -21 35
-29 27 -15 -15 -32 -14 -19 2 6 7 7 18 3 26 -7 11 -11 9 -20 -5 -10 -18 -13
-17 -36 11 -14 17 -25 27 -25 23 0 -4 -9 0 -20 9 -14 13 -17 20 -8 30 7 9 7
13 0 13 -6 0 -14 -5 -17 -10 -8 -14 -35 6 -35 26 0 7 -12 19 -27 26 -15 7 -30
24 -33 38 l-6 25 -6 -24 c-4 -13 -11 -20 -17 -16 -6 3 -9 11 -5 16 3 5 1 8 -4
7 -5 -2 -28 12 -50 30 -29 22 -40 38 -36 50 5 16 5 16 -9 0 -12 -15 -16 -16
-33 -3 -11 8 -14 15 -6 15 6 0 12 3 11 8 -1 4 2 17 6 29 6 18 11 20 31 13 24
-10 29 -4 25 28 -2 15 21 16 37 0z m-114 -53 c-7 -16 -24 -21 -24 -6 0 8 7 13
27 20 1 1 0 -6 -3 -14z m41 -95 c3 -5 1 -10 -4 -10 -6 0 -11 5 -11 10 0 6 2
10 4 10 3 0 8 -4 11 -10z m-105 -9 c0 -12 -20 -25 -27 -18 -7 7 6 27 18 27 5
0 9 -4 9 -9z m209 -81 c41 -38 73 -72 70 -74 -3 -3 -31 19 -63 48 -32 29 -70
63 -84 74 -18 14 -22 21 -12 21 8 0 48 -31 89 -69z m518 8 c-3 -8 -6 -5 -6 6
-1 11 2 17 5 13 3 -3 4 -12 1 -19z m-783 -3 c-6 -16 -24 -21 -24 -7 0 11 11
22 21 22 5 0 6 -7 3 -15z m341 -5 c3 -5 1 -10 -4 -10 -6 0 -11 5 -11 10 0 6 2
10 4 10 3 0 8 -4 11 -10z m475 -20 c0 -5 -5 -10 -11 -10 -5 0 -7 5 -4 10 3 6
8 10 11 10 2 0 4 -4 4 -10z m45 -40 c3 -5 2 -10 -4 -10 -5 0 -13 5 -16 10 -3
6 -2 10 4 10 5 0 13 -4 16 -10z m-755 -96 c0 -9 -5 -14 -12 -12 -18 6 -21 28
-4 28 9 0 16 -7 16 -16z m-264 -41 c-10 -10 -19 5 -10 18 6 11 8 11 12 0 2 -7
1 -15 -2 -18z m214 7 c0 -5 -2 -10 -4 -10 -3 0 -8 5 -11 10 -3 6 -1 10 4 10 6
0 11 -4 11 -10z m90 -1 c0 -5 4 -8 9 -4 5 3 12 1 15 -4 12 -18 -33 -18 -50 0
-16 18 -16 19 4 19 12 0 22 -5 22 -11z m-35 -20 c4 -6 4 -13 0 -17 -4 -4 -10
-1 -12 6 -3 6 -9 10 -13 7 -5 -3 -11 -1 -15 5 -3 5 3 10 14 10 11 0 23 -5 26
-11z m111 -31 c4 -13 12 -26 18 -30 6 -4 8 -10 4 -13 -9 -9 -56 38 -51 53 7
19 21 14 29 -10z m-26 -53 c19 -13 46 -33 60 -44 14 -11 31 -21 38 -21 6 0 12
-4 12 -10 0 -5 -3 -10 -7 -10 -21 2 -96 50 -137 88 -49 45 -61 66 -23 38 12
-9 38 -27 57 -41z m94 40 c-4 -8 -13 -15 -22 -15 -13 0 -12 3 4 15 24 18 25
18 18 0z m10 -71 c10 -25 -1 -29 -14 -5 -6 12 -7 21 -1 21 5 0 12 -7 15 -16z
m86 -15 c0 -18 -2 -19 -15 -9 -15 12 -12 30 6 30 5 0 9 -10 9 -21z m351 4 c13
-17 13 -17 -6 -3 -11 8 -22 16 -24 17 -2 2 0 3 6 3 6 0 17 -8 24 -17z m-1831
-37 c0 -14 -29 -31 -38 -21 -6 6 18 35 29 35 5 0 9 -6 9 -14z m1515 -6 c3 -5
15 -10 26 -10 12 0 23 -10 29 -26 6 -14 14 -22 20 -19 9 6 14 -8 11 -28 -1 -5
2 -6 7 -3 12 7 52 -22 52 -39 0 -11 -9 -9 -37 8 -21 12 -39 25 -41 29 -10 23
-72 79 -81 73 -6 -3 -11 1 -11 9 0 18 16 21 25 6z m-1605 -25 c-12 -15 -30
-12 -30 6 0 5 10 9 21 9 18 0 19 -2 9 -15z m-45 -5 c3 -5 1 -10 -4 -10 -6 0
-11 5 -11 10 0 6 2 10 4 10 3 0 8 -4 11 -10z"/>
<path d="M270 4123 c0 -14 19 -38 25 -32 8 8 -5 39 -16 39 -5 0 -9 -3 -9 -7z"/>
<path d="M847 4104 c-12 -12 3 -22 24 -17 16 4 17 8 7 14 -16 10 -23 11 -31 3z"/>
<path d="M1136 4071 c-3 -5 1 -11 9 -15 8 -3 15 -1 15 4 0 13 -18 22 -24 11z"/>
<path d="M2206 3305 c4 -8 8 -15 10 -15 2 0 4 7 4 15 0 8 -4 15 -10 15 -5 0
-7 -7 -4 -15z"/>
<path d="M2255 3260 c3 -5 8 -10 11 -10 2 0 4 5 4 10 0 6 -5 10 -11 10 -5 0
-7 -4 -4 -10z"/>
<path d="M595 4580 c-3 -5 -1 -10 4 -10 6 0 11 5 11 10 0 6 -2 10 -4 10 -3 0
-8 -4 -11 -10z"/>
<path d="M630 4580 c-12 -8 -10 -10 8 -10 13 0 20 4 17 10 -7 12 -6 12 -25 0z"/>
<path d="M3505 4580 c-4 -6 5 -10 19 -10 14 0 26 5 26 10 0 6 -9 10 -19 10
-11 0 -23 -4 -26 -10z"/>
<path d="M1637 4573 c-23 -6 -12 -23 16 -23 21 -1 21 -1 3 -15 -18 -13 -17
-14 8 -21 35 -8 41 -1 24 32 -14 29 -23 34 -51 27z"/>
<path d="M1710 4560 c0 -5 5 -10 10 -10 6 0 10 5 10 10 0 6 -4 10 -10 10 -5 0
-10 -4 -10 -10z"/>
<path d="M340 4540 c0 -5 5 -10 10 -10 6 0 10 5 10 10 0 6 -4 10 -10 10 -5 0
-10 -4 -10 -10z"/>
<path d="M3160 4540 c-9 -6 -10 -10 -3 -10 6 0 15 5 18 10 8 12 4 12 -15 0z"/>
<path d="M2502 4490 c0 -19 2 -27 5 -17 2 9 2 25 0 35 -3 9 -5 1 -5 -18z"/>
<path d="M2910 4456 c0 -2 8 -10 18 -17 15 -13 16 -12 3 4 -13 16 -21 21 -21
13z"/>
<path d="M3280 4376 c0 -2 8 -10 18 -17 15 -13 16 -12 3 4 -13 16 -21 21 -21
13z"/>
<path d="M2757 4293 c-3 -5 -1 -17 4 -28 7 -17 8 -17 8 8 1 27 -4 34 -12 20z"/>
<path d="M2860 4289 c0 -13 42 -90 46 -86 3 2 -5 22 -17 43 -22 41 -29 51 -29
43z"/>
<path d="M3020 4280 c0 -5 5 -10 11 -10 5 0 7 5 4 10 -3 6 -8 10 -11 10 -2 0
-4 -4 -4 -10z"/>
<path d="M3035 4250 c3 -5 8 -10 11 -10 2 0 4 5 4 10 0 6 -5 10 -11 10 -5 0
-7 -4 -4 -10z"/>
<path d="M2760 4225 c0 -11 9 -33 21 -50 l20 -30 -6 35 c-8 42 -35 76 -35 45z"/>
<path d="M3055 4230 c-3 -5 -1 -10 4 -10 6 0 11 5 11 10 0 6 -2 10 -4 10 -3 0
-8 -4 -11 -10z"/>
<path d="M3075 4180 c3 -5 8 -10 11 -10 2 0 4 5 4 10 0 6 -5 10 -11 10 -5 0
-7 -4 -4 -10z"/>
<path d="M3090 4150 c0 -6 7 -10 15 -10 8 0 15 2 15 4 0 2 -7 6 -15 10 -8 3
-15 1 -15 -4z"/>
<path d="M3330 4136 c0 -2 8 -10 18 -17 15 -13 16 -12 3 4 -13 16 -21 21 -21
13z"/>
<path d="M2820 4039 c0 -5 5 -7 10 -4 6 3 10 8 10 11 0 2 -4 4 -10 4 -5 0 -10
-5 -10 -11z"/>
<path d="M3860 3632 c6 -13 14 -21 18 -18 3 4 -2 14 -12 24 -18 16 -18 16 -6
-6z"/>
<path d="M2445 3381 c-3 -5 -1 -12 5 -16 5 -3 10 1 10 9 0 18 -6 21 -15 7z"/>
<path d="M3334 3375 c5 -16 2 -21 -13 -21 -11 0 -19 4 -18 9 1 5 -4 12 -10 14
-7 3 -13 0 -13 -7 0 -6 -4 -8 -10 -5 -5 3 -10 1 -10 -4 0 -6 -9 -11 -19 -11
-11 0 -27 -7 -35 -16 -9 -8 -19 -13 -23 -11 -17 10 -53 -13 -53 -33 0 -11 -7
-20 -15 -20 -8 0 -15 -4 -15 -10 0 -5 -5 -10 -11 -10 -5 0 -7 5 -4 10 3 6 2
10 -3 10 -13 0 -24 -29 -15 -43 4 -6 0 -8 -10 -4 -12 4 -16 1 -14 -11 1 -9 -2
-18 -7 -19 -16 -2 -27 -33 -21 -54 5 -13 3 -19 -3 -15 -6 3 -12 -10 -14 -32
-3 -20 -1 -38 4 -40 11 -5 10 -42 -2 -42 -5 0 -10 -7 -10 -15 0 -23 78 -247
90 -259 5 -5 10 -20 10 -32 0 -12 3 -24 8 -26 4 -1 19 -20 34 -40 16 -20 43
-47 60 -59 l33 -23 -22 25 c-13 14 -23 29 -23 33 0 10 55 -33 56 -45 1 -5 2
-16 3 -24 0 -8 6 -15 12 -15 6 0 9 7 5 15 -3 8 -1 15 5 15 6 0 9 -8 8 -17 -3
-33 1 -40 26 -51 14 -7 28 -12 30 -12 12 0 3 23 -16 43 -30 32 -60 95 -57 120
3 24 41 84 66 105 9 6 29 12 45 12 25 0 27 2 17 15 -13 15 -6 35 13 35 12 1
57 80 57 101 0 7 -10 -1 -22 -16 -27 -35 -132 -85 -178 -85 -84 1 -168 86
-193 194 -22 98 -10 149 53 208 53 51 84 64 132 54 39 -8 158 -66 158 -77 0
-5 11 -18 24 -30 13 -11 28 -37 34 -57 32 -112 32 -112 28 -39 -2 37 -10 74
-17 83 -7 9 -14 22 -15 29 -4 27 -86 184 -106 201 -20 19 -21 19 -14 -1z"/>
<path d="M2505 3300 c10 -11 20 -20 22 -20 2 0 -2 9 -9 20 -7 11 -17 20 -22
20 -5 0 -1 -9 9 -20z"/>
<path d="M4022 3206 c-12 -20 -17 -39 -12 -47 5 -7 6 -17 4 -21 -3 -4 0 -8 7
-8 6 0 0 -9 -14 -21 -15 -11 -26 -23 -26 -27 3 -19 -2 -25 -11 -12 -8 13 -10
12 -10 -3 0 -9 -4 -25 -9 -35 -5 -9 -21 -48 -36 -86 -14 -39 -40 -87 -56 -107
-16 -20 -29 -42 -29 -48 0 -6 -5 -11 -11 -11 -6 0 -9 -9 -6 -20 3 -11 2 -18
-3 -15 -4 3 -14 -3 -21 -13 -12 -15 -12 -16 2 -5 9 7 18 10 21 8 3 -3 17 -1
32 4 17 7 26 7 26 1 0 -6 -6 -10 -14 -10 -18 0 -29 -27 -13 -33 7 -3 -1 -10
-16 -16 -28 -11 -29 -31 -1 -31 8 0 13 4 9 9 -3 6 4 15 15 21 13 7 20 7 20 0
0 -18 26 -11 48 13 12 13 22 27 22 31 0 4 13 24 29 44 35 45 48 96 30 118 -11
14 -11 18 3 28 10 8 22 45 32 103 9 50 20 103 26 118 13 34 5 45 -15 19 -15
-20 -15 -21 -15 34 0 4 6 7 13 7 6 0 13 10 15 23 5 33 -13 27 -36 -12z m-62
-256 c0 -5 -5 -10 -11 -10 -5 0 -7 5 -4 10 3 6 8 10 11 10 2 0 4 -4 4 -10z
m40 -80 c0 -5 -4 -10 -10 -10 -5 0 -10 5 -10 10 0 6 5 10 10 10 6 0 10 -4 10
-10z m-26 -16 c8 -21 8 -21 -9 -21 -8 0 -15 9 -15 19 0 22 16 24 24 2z m-30
-27 c2 -10 0 -14 -7 -10 -6 4 -8 0 -5 -9 7 -16 -27 -42 -42 -33 -13 8 -13 42
0 50 6 4 8 10 5 15 -3 4 6 7 20 6 14 0 26 -8 29 -19z m-57 -65 c15 -15 17 -32
5 -32 -10 0 -32 45 -31 63 0 7 3 6 6 -3 4 -8 12 -21 20 -28z"/>
<path d="M3122 3161 c0 -35 56 -124 75 -117 10 4 13 1 8 -13 -4 -14 3 -25 25
-41 35 -25 108 -49 128 -43 14 5 16 59 2 68 -5 3 -10 15 -10 26 0 13 -6 19
-17 17 -12 -2 -18 3 -17 15 1 9 -3 17 -10 17 -6 0 -17 9 -24 21 -7 12 -16 18
-19 15 -3 -3 0 -12 6 -20 16 -19 6 -36 -20 -36 -25 0 -45 46 -28 66 6 8 10 14
8 14 -3 0 -27 8 -55 19 l-51 18 -1 -26z"/>
<path d="M4891 3161 c-14 -9 -10 -52 15 -180 5 -24 4 -32 -4 -27 -6 3 -14 28
-17 54 -11 80 -17 92 -27 52 -5 -22 -2 -77 7 -145 8 -60 19 -144 24 -186 6
-42 13 -83 17 -92 3 -10 2 -17 -3 -17 -5 0 -16 24 -24 53 l-16 52 -6 -167 c-4
-91 -4 -180 -1 -197 4 -20 2 -31 -5 -31 -7 0 -11 -35 -11 -109 0 -123 8 -180
22 -159 5 8 6 -1 2 -24 -4 -27 -3 -38 6 -38 7 0 10 -7 6 -16 -9 -23 31 -86
102 -164 59 -64 86 -75 64 -25 -7 14 -12 39 -12 55 0 16 -7 36 -16 44 -11 11
-14 25 -9 46 7 34 3 37 -19 14 -9 -8 -16 -10 -16 -4 0 6 7 13 15 16 9 4 15 19
15 37 0 23 3 28 11 20 7 -7 12 -37 12 -68 0 -49 2 -55 18 -50 11 4 19 0 22
-12 4 -14 5 -13 6 4 0 12 -8 40 -20 62 -11 23 -19 46 -16 53 2 7 8 1 12 -14 4
-16 11 -28 15 -28 11 0 -5 79 -19 93 -12 12 -15 31 -3 23 4 -2 8 31 9 75 1 53
-2 79 -10 79 -8 0 -7 4 1 12 14 14 16 32 3 24 -12 -8 -19 36 -10 60 6 14 8 11
8 -15 1 -52 14 -28 23 42 4 34 10 73 12 87 11 59 25 127 32 154 5 21 4 27 -5
22 -6 -4 -11 -2 -11 3 0 6 5 11 11 11 8 0 10 26 6 85 -7 97 -24 136 -107 245
-36 48 -53 83 -65 133 -18 69 -20 73 -44 58z m164 -351 c3 -5 1 -10 -4 -10 -6
0 -11 5 -11 10 0 6 2 10 4 10 3 0 8 -4 11 -10z m-95 -41 c0 -22 -4 -38 -8 -35
-12 7 -14 76 -2 76 5 0 10 -18 10 -41z m129 -56 c9 -20 9 -29 0 -37 -9 -8 -10
-7 -6 6 4 12 2 15 -9 11 -10 -4 -14 2 -14 21 0 33 13 33 29 -1z m-129 -107 c0
-5 -7 -3 -15 4 -8 7 -15 20 -15 28 0 13 3 12 15 -4 8 -10 15 -23 15 -28z m72
22 c5 -15 -20 -43 -30 -34 -3 4 0 11 7 15 7 5 10 14 7 20 -4 6 -3 11 3 11 5 0
11 -6 13 -12z m-112 -28 c0 -5 -5 -10 -11 -10 -5 0 -7 5 -4 10 3 6 8 10 11 10
2 0 4 -4 4 -10z m128 -45 c-2 -11 -6 -11 -23 2 -17 14 -17 15 -2 9 15 -5 17
-2 12 17 -5 19 -5 20 5 4 6 -10 10 -24 8 -32z m33 28 c13 -16 12 -17 -3 -4
-17 13 -22 21 -14 21 2 0 10 -8 17 -17z m-164 -25 c-3 -8 -6 -5 -6 6 -1 11 2
17 5 13 3 -3 4 -12 1 -19z m163 -30 c0 -16 -3 -19 -11 -11 -6 6 -8 16 -5 22
11 17 16 13 16 -11z m-24 -15 c15 -20 18 -33 7 -33 -5 0 -13 11 -20 25 -13 29
-6 33 13 8z m-86 -54 c0 -5 -4 -9 -10 -9 -5 0 -10 7 -10 16 0 8 5 12 10 9 6
-3 10 -10 10 -16z m40 -9 c0 -5 -5 -10 -11 -10 -5 0 -7 5 -4 10 3 6 8 10 11
10 2 0 4 -4 4 -10z m36 -77 c-7 -7 -26 7 -26 19 0 6 6 6 15 -2 9 -7 13 -15 11
-17z m-73 -11 c-3 -12 -9 -22 -14 -22 -5 0 -3 11 3 25 13 30 20 28 11 -3z m-6
-74 c-3 -8 -6 -5 -6 6 -1 11 2 17 5 13 3 -3 4 -12 1 -19z m43 6 c0 -8 -5 -12
-10 -9 -6 4 -8 11 -5 16 9 14 15 11 15 -7z m-130 -104 c0 -5 -5 -10 -11 -10
-5 0 -7 5 -4 10 3 6 8 10 11 10 2 0 4 -4 4 -10z m113 -17 c2 -5 7 -26 10 -48
6 -35 5 -37 -4 -15 -6 14 -15 33 -20 42 -5 10 -9 20 -9 23 0 8 18 6 23 -2z
m-113 -49 c0 -8 -4 -12 -10 -9 -5 3 -10 10 -10 16 0 5 5 9 10 9 6 0 10 -7 10
-16z m100 -134 c0 -5 -2 -10 -4 -10 -3 0 -8 5 -11 10 -3 6 -1 10 4 10 6 0 11
-4 11 -10z m0 -117 c0 -7 -4 -13 -10 -13 -5 0 -10 12 -10 28 0 21 2 24 10 12
5 -8 10 -21 10 -27z m17 -5 c-3 -8 -6 -5 -6 6 -1 11 2 17 5 13 3 -3 4 -12 1
-19z m33 -68 c0 -5 -4 -10 -10 -10 -5 0 -10 5 -10 10 0 6 5 10 10 10 6 0 10
-4 10 -10z"/>
<path d="M4222 3069 c-13 -10 -20 -24 -17 -30 5 -8 1 -9 -13 -5 -15 5 -22 1
-27 -14 -7 -23 5 -44 12 -22 3 6 9 9 15 6 7 -4 1 -15 -13 -26 -13 -11 -18 -17
-11 -13 6 3 12 1 12 -4 0 -6 -4 -11 -10 -11 -5 0 -10 -5 -10 -12 0 -6 8 -4 19
6 18 17 76 134 69 141 -1 2 -13 -5 -26 -16z"/>
<path d="M2765 3047 c-3 -9 -7 -23 -9 -30 -2 -8 0 -36 6 -62 8 -35 13 -44 20
-34 7 10 8 6 5 -13 -4 -27 6 -38 18 -18 3 5 12 7 20 3 9 -3 15 1 15 11 0 9 -6
15 -12 14 -8 -2 -12 8 -11 27 2 18 0 24 -5 15 -11 -23 -31 -22 -25 0 3 11 9
23 14 26 5 3 9 10 9 15 0 6 -4 8 -9 5 -5 -3 -14 0 -20 8 -9 11 -9 15 1 19 10
3 10 7 1 17 -10 11 -13 10 -18 -3z"/>
<path d="M4135 2980 c-3 -5 -1 -10 4 -10 6 0 11 5 11 10 0 6 -2 10 -4 10 -3 0
-8 -4 -11 -10z"/>
<path d="M3471 2964 c0 -11 3 -14 6 -6 3 7 2 16 -1 19 -3 4 -6 -2 -5 -13z"/>
<path d="M4121 2924 c-12 -27 -11 -28 4 -12 10 9 16 21 13 28 -2 7 -10 -1 -17
-16z"/>
<path d="M787 2920 c-16 -19 -16 -20 2 -20 10 0 21 9 24 20 3 11 2 20 -2 20
-3 0 -14 -9 -24 -20z"/>
<path d="M840 2920 c0 -6 7 -10 15 -10 8 0 15 2 15 4 0 2 -7 6 -15 10 -8 3
-15 1 -15 -4z"/>
<path d="M885 2920 c-8 -13 5 -13 25 0 13 8 13 10 -2 10 -9 0 -20 -4 -23 -10z"/>
<path d="M2812 2861 c-11 -7 -11 -9 2 -14 9 -4 21 -17 26 -29 8 -20 9 -19 7
11 -2 36 -13 46 -35 32z"/>
<path d="M2863 2785 c-3 -9 -3 -18 -1 -21 3 -3 8 4 11 16 6 23 -1 27 -10 5z"/>
<path d="M1404 2741 c7 -11 56 -21 56 -11 0 9 -25 20 -46 20 -9 0 -13 -4 -10
-9z"/>
<path d="M2630 2726 c0 -2 7 -7 16 -10 8 -3 12 -2 9 4 -6 10 -25 14 -25 6z"/>
<path d="M3760 2700 c0 -5 5 -10 11 -10 5 0 7 5 4 10 -3 6 -8 10 -11 10 -2 0
-4 -4 -4 -10z"/>
<path d="M3737 2636 c-4 -10 -1 -13 9 -9 15 6 19 23 5 23 -5 0 -11 -7 -14 -14z"/>
<path d="M10 2624 c0 -8 5 -12 10 -9 6 4 8 11 5 16 -9 14 -15 11 -15 -7z"/>
<path d="M4726 2585 c-5 -26 -4 -41 3 -43 6 -2 11 -15 11 -28 0 -14 4 -22 10
-19 6 3 10 1 10 -4 0 -16 -20 -13 -26 4 -9 22 -24 18 -24 -6 0 -12 4 -18 11
-13 9 5 10 -7 5 -42 -7 -44 -6 -47 7 -30 13 17 14 17 20 2 4 -10 1 -19 -8 -23
-10 -3 -12 -9 -6 -17 5 -6 6 -32 1 -59 -4 -26 -4 -50 0 -52 10 -6 29 135 23
168 -3 15 -1 27 5 27 5 0 12 23 14 50 1 28 0 50 -4 50 -5 0 -8 -5 -8 -11 0 -5
-5 -7 -10 -4 -6 4 -8 16 -4 27 4 13 2 18 -4 14 -6 -4 -12 5 -14 21 -3 25 -4
24 -12 -12z"/>
<path d="M80 2592 c0 -4 6 -14 13 -21 10 -11 7 -12 -14 -8 -31 8 -69 -29 -69
-68 0 -23 4 -25 43 -26 l42 -1 -42 -10 -43 -9 0 -67 0 -67 55 3 c59 4 67 -4
35 -33 -14 -13 -29 -16 -54 -12 -37 6 -47 -3 -38 -36 4 -15 14 -18 61 -16 31
1 63 -1 71 -4 8 -4 49 -8 90 -10 41 -3 98 -10 125 -17 55 -14 74 -15 123 -4
31 6 128 -3 120 -12 -3 -2 -39 -8 -82 -14 -44 -5 -84 -16 -92 -25 -20 -20
-106 -19 -159 1 -51 20 -91 23 -87 7 1 -10 -20 -13 -83 -13 -89 0 -105 -8 -55
-27 27 -10 28 -13 17 -37 -8 -18 -17 -24 -30 -20 -9 3 -17 1 -17 -5 0 -7 28
-11 74 -11 65 0 74 -2 79 -20 4 -17 0 -20 -33 -20 -46 0 -72 9 -64 21 3 5 1 9
-5 9 -5 0 -13 -5 -16 -10 -5 -8 -11 -7 -21 1 -17 14 -15 38 -15 -251 l0 -215
31 -25 c40 -33 40 -60 0 -60 l-30 0 0 -70 c0 -66 12 -92 26 -55 4 8 11 15 16
15 7 0 6 -5 -1 -13 -8 -10 -6 -19 10 -35 22 -25 41 -27 84 -8 l29 12 -32 24
c-18 13 -32 32 -32 42 0 10 -8 18 -17 19 -15 0 -14 2 4 11 17 8 26 8 38 -2 25
-21 67 -98 60 -110 -17 -27 -70 -42 -127 -37 l-58 5 0 -124 0 -124 93 0 c115
0 228 -10 222 -20 -3 -4 -73 -8 -157 -9 -83 -1 -154 -4 -157 -6 -3 -3 -5 -45
-5 -94 -1 -61 3 -93 13 -104 15 -19 57 -22 97 -6 l28 10 -24 12 c-28 14 -42
44 -16 34 10 -4 36 -7 57 -7 36 0 40 -2 34 -20 -9 -27 14 -35 48 -17 l28 14
-32 7 c-46 9 -35 13 56 19 l81 5 21 -39 c11 -21 18 -40 15 -43 -10 -10 -121
-6 -127 4 -10 15 -55 12 -61 -5 -5 -12 -27 -15 -110 -15 -63 0 -104 -4 -104
-10 0 -12 112 -13 277 -1 123 9 167 6 157 -10 -3 -5 1 -12 10 -15 8 -3 17 -13
21 -22 5 -14 4 -15 -6 -4 -14 13 -51 16 -63 5 -4 -5 -17 -9 -29 -10 -12 -2
-34 -4 -49 -6 -16 -2 -31 -7 -35 -10 -3 -4 -55 -7 -113 -7 -59 0 -122 -3 -139
-6 l-31 -7 0 -68 0 -69 32 0 c17 0 59 5 94 11 55 9 65 15 88 47 28 40 36 37
10 -4 -21 -31 -12 -41 24 -28 15 5 49 7 75 4 38 -5 53 -2 69 12 13 11 35 17
62 17 22 -1 73 4 111 11 39 6 93 13 120 13 28 1 56 6 63 11 20 12 22 4 10 -37
-6 -20 -9 -39 -6 -42 8 -9 81 28 106 53 12 12 26 20 31 18 5 -3 90 -7 190 -8
l181 -3 0 -47 c0 -52 -8 -58 -80 -62 -21 -1 -45 -8 -54 -15 -17 -15 -85 -8
-163 15 -17 5 -23 2 -23 -10 0 -20 -5 -20 -36 1 -21 13 -30 14 -45 5 -24 -15
-96 -16 -105 -1 -3 6 -9 7 -13 3 -24 -34 -99 -38 -132 -8 -17 15 -22 16 -29 5
-5 -10 -21 -12 -51 -9 -24 3 -38 4 -31 1 32 -12 -4 -18 -70 -12 -105 11 -208
11 -208 0 0 -6 -12 -6 -32 0 -46 13 -79 11 -111 -6 -25 -13 -57 -11 -57 3 0 3
7 14 17 24 15 17 15 18 -10 18 -29 0 -30 -2 -30 -150 0 -27 1 -111 2 -185 l1
-135 380 0 c289 0 380 3 380 12 0 9 3 9 12 0 9 -9 17 -3 35 23 27 39 38 43 52
18 5 -10 11 -16 13 -13 2 3 16 21 31 42 18 25 32 35 45 31 10 -2 24 2 31 11 7
8 18 13 26 10 7 -3 16 0 21 7 5 9 2 10 -9 6 -12 -4 -17 -1 -17 10 0 18 81 109
94 105 18 -6 46 10 46 27 0 10 11 28 25 41 13 12 22 26 20 31 -3 4 5 11 17 15
12 3 43 21 69 39 25 19 57 35 70 37 24 3 39 15 39 32 0 6 -5 5 -12 -2 -25 -25
-38 -13 -38 33 l0 45 67 0 67 0 -30 -31 -29 -32 27 7 c16 4 28 2 30 -6 3 -8
12 -4 26 10 12 12 34 24 49 28 16 4 34 12 41 17 8 6 27 10 42 9 16 -1 31 2 35
8 3 5 17 10 31 10 17 0 24 5 24 20 0 24 12 25 76 3 l49 -17 -29 -11 c-35 -15
-18 -29 17 -16 23 9 129 15 167 10 8 -1 24 -1 35 0 17 1 17 3 5 11 -12 7 -12
12 -2 22 9 9 19 10 41 1 17 -6 67 -8 126 -5 110 5 110 5 120 -68 9 -67 18 -77
44 -51 11 11 34 21 49 21 15 0 33 5 40 12 9 9 18 9 37 0 33 -15 26 -28 -20
-36 -43 -8 -44 -21 -5 -41 17 -9 30 -20 30 -25 0 -6 5 -10 11 -10 12 0 51 -28
113 -82 27 -23 54 -38 74 -40 26 -2 31 -6 28 -24 -2 -12 4 -36 15 -53 26 -44
24 -47 -12 -17 -29 25 -32 26 -44 9 -11 -15 -9 -22 11 -46 31 -37 31 -57 -1
-57 -20 0 -25 5 -25 24 0 35 -15 40 -29 10 -14 -31 -14 -35 0 -31 6 1 14 -4
16 -10 3 -7 0 -13 -6 -13 -6 0 -11 -4 -11 -10 0 -13 47 -13 52 1 2 5 11 7 21
3 12 -4 16 -12 11 -27 -6 -19 -5 -20 9 -5 9 9 14 24 10 37 -9 36 38 11 62 -32
23 -43 31 -45 62 -15 23 22 33 12 11 -10 -9 -9 82 -12 412 -12 l424 0 -70 72
c-87 90 -131 141 -264 308 -33 41 -60 78 -60 83 0 4 -7 7 -16 7 -8 0 -12 5 -9
10 3 6 -3 22 -14 36 -12 15 -21 32 -21 38 0 6 -8 19 -17 28 -32 30 -48 52 -48
68 -1 8 -6 14 -12 13 -6 -1 -14 4 -17 12 -3 8 -2 14 2 14 19 -3 46 3 34 8 -9
4 -10 8 -2 18 8 9 8 15 0 20 -5 3 -10 10 -10 16 0 18 40 -16 41 -36 1 -18 2
-18 6 -2 3 11 11 16 19 13 8 -3 14 -1 14 3 0 5 -4 11 -10 13 -6 2 -6 8 0 18 8
12 12 12 18 2 7 -10 11 -10 22 3 10 12 10 15 -5 15 -12 0 -16 6 -12 20 3 11 1
20 -3 20 -5 0 -16 3 -24 6 -11 4 -15 2 -11 -8 3 -7 -1 -22 -10 -33 -13 -17
-16 -18 -25 -5 -9 13 -11 13 -20 0 -5 -8 -10 -27 -10 -41 0 -26 -26 -47 -39
-33 -3 4 0 9 7 11 6 3 12 9 12 14 0 4 -7 6 -15 3 -8 -4 -15 -1 -15 5 0 6 -9
11 -20 11 -11 0 -20 6 -20 14 0 20 -48 56 -74 56 -13 0 3 12 42 33 34 17 62
37 62 44 0 7 5 13 11 13 5 0 8 -4 4 -10 -12 -19 208 90 355 177 109 64 154
107 146 138 -4 15 -2 25 4 25 6 0 8 -4 5 -10 -3 -5 0 -10 7 -10 8 0 15 10 15
22 1 13 17 35 35 50 l33 27 -22 23 c-13 12 -23 17 -23 11 0 -6 -7 -14 -15 -17
-11 -4 -19 3 -26 22 -9 23 -12 25 -22 12 -7 -8 -28 -16 -47 -17 -19 -2 -56
-10 -83 -20 -43 -16 -48 -20 -42 -43 5 -23 4 -23 -6 -5 -7 11 -13 21 -14 23
-7 9 -35 -13 -35 -29 0 -12 -7 -19 -19 -19 -11 0 -27 -3 -37 -7 -12 -4 -15 -3
-10 5 5 8 -1 12 -18 12 -15 0 -31 -8 -38 -19 -6 -10 -18 -17 -25 -14 -7 3 -13
0 -13 -7 0 -7 -8 -9 -20 -5 -13 4 -20 2 -20 -6 0 -7 -3 -9 -7 -6 -10 11 -33
-14 -33 -37 -1 -21 -1 -21 -16 -1 -20 27 -77 29 -70 2 3 -13 1 -15 -8 -8 -16
14 -33 1 -41 -32 -6 -22 -4 -27 11 -27 18 -1 18 -1 2 -11 -10 -5 -18 -15 -18
-21 0 -8 3 -9 10 -2 5 5 26 8 45 6 l35 -4 -24 -19 c-13 -10 -30 -19 -36 -19
-19 0 -50 -40 -51 -64 -1 -28 -8 -67 -15 -86 -3 -8 -8 -34 -10 -58 -4 -48 -10
-62 -26 -62 -6 0 -8 12 -4 33 9 44 16 87 20 117 1 14 6 35 10 47 9 27 -1 46
-17 36 -21 -13 -31 -10 -63 19 -24 23 -37 28 -58 22 -31 -7 -32 -4 -7 36 18
31 18 31 25 8 6 -17 9 -19 13 -8 10 24 31 41 38 30 3 -5 -3 -20 -15 -32 -15
-16 -17 -24 -8 -30 21 -13 30 -9 23 11 -5 15 0 21 25 26 16 4 30 11 30 16 0 6
4 8 9 5 8 -6 38 22 30 27 -2 1 -12 9 -22 16 -15 12 -20 11 -37 -4 -15 -14 -23
-15 -34 -6 -11 9 -15 7 -20 -11 -6 -21 -7 -22 -17 -5 -10 17 -12 17 -29 -2
-14 -17 -24 -20 -50 -15 -30 7 -32 6 -21 -14 6 -12 7 -23 2 -26 -5 -4 -11 -1
-13 6 -8 24 -37 -2 -48 -42 -8 -29 -16 -40 -25 -36 -9 3 -12 0 -8 -9 7 -19
-46 -165 -63 -172 -6 -2 -10 -12 -7 -22 7 -28 -76 -169 -91 -154 -11 11 -6 49
9 69 8 10 15 26 15 35 0 8 5 20 12 27 6 6 13 22 15 34 4 25 42 127 54 143 4 6
19 39 33 74 23 57 24 65 10 78 -12 13 -13 18 -3 24 7 4 17 5 22 2 13 -8 27 17
27 50 0 17 5 27 15 27 8 0 15 7 15 17 0 15 -1 15 -18 0 -10 -10 -22 -14 -27
-10 -4 5 -5 0 -2 -9 4 -11 0 -22 -11 -28 -16 -11 -16 -11 1 -6 11 4 17 0 17
-10 0 -10 -6 -14 -14 -11 -7 3 -19 0 -26 -6 -10 -9 -11 -9 -5 2 6 11 4 13 -8
8 -9 -3 -18 -1 -21 6 -2 7 -5 4 -5 -5 -1 -10 4 -18 9 -18 6 0 10 -4 10 -10 0
-5 -7 -10 -15 -10 -8 0 -15 5 -15 10 0 6 -3 9 -7 8 -5 0 -16 2 -26 7 -17 7
-17 8 0 21 11 8 13 13 6 14 -7 0 -24 -17 -37 -38 -14 -20 -43 -62 -65 -92 -23
-30 -59 -81 -81 -113 -23 -32 -45 -55 -51 -52 -5 4 -9 3 -8 -2 3 -19 -2 -31
-23 -55 -13 -14 -31 -38 -40 -54 -9 -16 -22 -29 -29 -29 -7 0 -13 -11 -14 -23
-2 -22 -19 -41 -37 -42 -17 0 1 34 55 104 20 27 37 58 37 69 0 16 3 17 15 7
13 -11 15 -8 15 19 0 24 4 31 20 31 11 0 20 7 20 15 0 8 5 15 11 15 8 0 8 5
-1 15 -10 12 -10 15 3 15 16 0 41 34 42 55 1 16 29 55 40 55 9 0 44 66 59 113
3 10 10 16 15 12 16 -9 23 13 11 35 -9 16 -8 25 1 36 6 8 14 12 17 9 3 -2 0
-10 -6 -18 -6 -7 -7 -18 -3 -26 7 -10 13 -7 27 15 10 16 24 32 31 37 6 4 26
28 43 53 24 35 27 45 13 39 -10 -4 -26 -10 -35 -12 -10 -3 -18 -9 -18 -14 0
-5 -9 -9 -20 -9 -11 0 -17 -5 -15 -12 3 -7 -6 -18 -20 -25 -27 -12 -33 -5 -13
15 9 9 8 12 -5 12 -10 0 -20 -7 -23 -15 -4 -8 -11 -15 -17 -15 -6 0 -19 -7
-29 -17 -17 -15 -17 -18 -2 -34 10 -12 14 -25 9 -36 -6 -16 -9 -14 -17 9 -10
30 -38 46 -38 22 0 -8 5 -12 10 -9 13 8 13 -5 0 -25 -6 -10 -10 -11 -10 -2 0
6 -11 12 -25 12 -19 0 -25 5 -25 21 0 18 -3 19 -14 10 -19 -16 -60 4 -52 25 3
8 0 14 -6 14 -6 0 -20 7 -30 17 -11 9 -18 11 -18 5 0 -21 -15 -12 -28 16 -16
38 -17 67 -3 134 7 31 13 67 15 80 1 12 10 39 18 58 10 20 13 41 8 49 -4 8 -3
25 2 37 7 14 7 28 0 40 -7 14 -7 25 0 38 9 16 8 18 -6 13 -14 -5 -16 0 -14 33
2 21 -1 40 -7 41 -5 1 -15 9 -21 17 -10 13 -14 11 -30 -14 -10 -16 -24 -33
-31 -39 -7 -5 -24 -41 -39 -80 -14 -38 -30 -75 -35 -82 -7 -7 -5 -13 3 -15 10
-4 10 -8 -1 -21 -7 -9 -17 -15 -21 -12 -4 3 -10 -6 -12 -19 -3 -16 -1 -23 7
-20 7 3 15 -3 19 -12 9 -23 0 -30 -19 -14 -12 10 -15 10 -15 -3 0 -9 -5 -28
-10 -43 -10 -26 -11 -26 -32 -8 -11 11 -58 64 -104 118 -76 91 -134 189 -174
294 -8 22 -21 34 -39 38 -14 4 -32 14 -39 23 -11 14 -14 14 -22 1 -7 -12 -12
-12 -22 -2 -6 6 -21 12 -31 12 -34 0 -161 43 -202 68 -22 13 -64 47 -92 75
-44 43 -58 51 -89 50 -22 -1 -37 4 -41 13 -3 9 -13 12 -24 9 -15 -5 -19 -1
-20 17 0 13 -3 17 -6 11 -8 -22 -33 -14 -33 10 0 12 -4 17 -8 11 -14 -21 -41
-22 -76 -3 -20 10 -43 19 -51 19 -13 0 -14 4 -5 20 9 17 8 20 -10 20 -11 0
-20 -4 -20 -10 0 -14 -51 -9 -78 8 -16 11 -26 11 -35 3 -21 -17 -78 8 -75 33
2 15 -5 22 -29 29 -18 6 -33 14 -33 18 0 5 -7 6 -14 3 -8 -3 -25 3 -37 15 -12
11 -26 18 -31 15 -5 -3 -18 2 -28 11 -11 10 -24 14 -32 9 -7 -4 -10 -4 -6 1 4
4 -31 36 -78 71 -65 49 -89 62 -102 56 -48 -25 -91 -21 -149 14 -56 33 -83 42
-83 26z m120 -122 l25 -8 -25 -1 c-14 0 -32 4 -40 9 -13 9 -13 10 0 9 8 -1 26
-5 40 -9z m-10 -115 c11 -13 6 -15 -33 -15 -50 0 -77 7 -77 21 0 16 96 10 110
-6z m184 9 c33 -13 14 -24 -39 -24 -76 0 -71 22 7 29 9 0 23 -2 32 -5z m117
-4 c5 0 9 -5 9 -11 0 -15 -43 -7 -48 10 -3 10 0 12 12 8 10 -4 22 -7 27 -7z
m-233 -66 c3 -19 0 -20 -40 -14 -84 12 -96 43 -15 38 44 -3 52 -6 55 -24z
m142 16 c12 -8 11 -10 -6 -10 -11 0 -29 -7 -40 -15 -24 -18 -48 -19 -63 -2
-17 21 7 37 54 37 22 0 47 -5 55 -10z m145 -30 c3 -5 -1 -10 -10 -10 -9 0 -13
5 -10 10 3 6 8 10 10 10 2 0 7 -4 10 -10z m80 -10 c-3 -5 -19 -10 -36 -10 -16
0 -29 5 -29 10 0 6 16 10 36 10 21 0 33 -4 29 -10z m1611 -457 c-10 -10 -19 5
-10 18 6 11 8 11 12 0 2 -7 1 -15 -2 -18z m-20 -120 c-10 -10 -19 5 -10 18 6
11 8 11 12 0 2 -7 1 -15 -2 -18z m-81 7 c-3 -5 -11 -10 -16 -10 -6 0 -7 5 -4
10 3 6 11 10 16 10 6 0 7 -4 4 -10z m-1815 -30 c0 -19 -31 -23 -48 -6 -15 15
-14 16 16 16 18 0 32 -5 32 -10z m1787 -22 c-3 -8 -6 -5 -6 6 -1 11 2 17 5 13
3 -3 4 -12 1 -19z m-1592 -8 c3 -5 -1 -10 -10 -10 -9 0 -13 5 -10 10 3 6 8 10
10 10 2 0 7 -4 10 -10z m248 -43 c-32 -10 -63 -5 -63 10 0 5 21 6 48 4 l47 -4
-32 -10z m127 -2 c0 -8 -8 -15 -19 -15 -10 0 -24 7 -31 15 -11 13 -8 15 19 15
21 0 31 -5 31 -15z m1285 -25 c3 -5 1 -10 -4 -10 -6 0 -11 5 -11 10 0 6 2 10
4 10 3 0 8 -4 11 -10z m-55 -89 c0 -6 -4 -13 -10 -16 -5 -3 -10 1 -10 9 0 9 5
16 10 16 6 0 10 -4 10 -9z m-1373 -47 c19 -18 73 -28 86 -15 19 19 64 12 107
-16 35 -23 39 -29 22 -31 -11 -2 -22 -12 -25 -23 -3 -12 -14 -19 -30 -19 -14
0 -29 -5 -33 -12 -5 -8 4 -9 34 -5 51 9 77 0 61 -19 -8 -10 -22 -12 -44 -8
-19 3 -35 1 -39 -5 -4 -6 -16 -11 -27 -11 -10 0 -19 -4 -19 -10 0 -5 -5 -10
-11 -10 -6 0 -9 7 -5 15 10 27 -5 46 -34 43 -15 -1 -35 4 -44 11 -11 10 -31
12 -66 8 -90 -11 -89 -30 2 -52 29 -8 42 -14 28 -14 -28 0 -132 23 -150 34 -6
4 -10 16 -7 26 5 20 -25 45 -42 34 -16 -9 -41 7 -41 26 0 21 -21 25 -49 10
-18 -10 -51 3 -38 15 20 21 91 38 166 40 46 2 86 6 89 9 10 9 95 -7 109 -21z
m1346 12 c4 -10 0 -12 -14 -9 -10 3 -16 9 -13 14 8 13 21 11 27 -5z m75 -18
c-2 -5 -8 -9 -13 -9 -5 0 -11 4 -13 9 -1 5 4 9 13 9 9 0 14 -4 13 -9z m-1905
-25 c-7 -2 -19 -2 -25 0 -7 3 -2 5 12 5 14 0 19 -2 13 -5z m-168 -43 c3 -5 1
-10 -4 -10 -6 0 -11 5 -11 10 0 6 2 10 4 10 3 0 8 -4 11 -10z m3600 -39 c-3
-6 -11 -11 -17 -11 -6 0 -6 6 2 15 14 17 26 13 15 -4z m-50 -2 c11 -16 1 -19
-13 -3 -7 8 -8 14 -3 14 5 0 13 -5 16 -11z m-2537 -16 c16 -16 15 -16 -8 -10
-14 4 -31 7 -37 7 -7 0 -13 5 -13 10 0 16 40 11 58 -7z m2387 7 c-3 -5 -12
-10 -18 -10 -7 0 -6 4 3 10 19 12 23 12 15 0z m105 -29 c0 -6 -4 -13 -10 -16
-5 -3 -10 1 -10 9 0 9 5 16 10 16 6 0 10 -4 10 -9z m-2981 -56 c-1 -16 -2 -16
-6 -3 -6 22 -32 31 -49 17 -11 -9 -18 -8 -29 1 -13 10 -15 9 -15 -9 0 -11 -4
-21 -10 -21 -5 0 -10 6 -10 14 0 21 -20 30 -33 17 -6 -6 -15 -11 -21 -11 -28
0 22 26 67 35 61 13 108 -5 106 -40z m177 26 c-5 -8 -56 -3 -56 5 0 2 14 4 31
4 16 0 28 -4 25 -9z m-400 -10 c-9 -13 -112 -24 -149 -14 -29 7 -26 8 33 14
107 9 121 9 116 0z m3004 5 c0 -3 -4 -8 -10 -11 -5 -3 -10 -1 -10 4 0 6 5 11
10 11 6 0 10 -2 10 -4z m-2683 -22 c-3 -3 -12 -4 -19 -1 -8 3 -5 6 6 6 11 1
17 -2 13 -5z m379 -13 c-3 -5 -15 -7 -26 -4 -28 7 -25 13 6 13 14 0 23 -4 20
-9z m1264 -10 c0 -12 -20 -25 -27 -18 -7 7 6 27 18 27 5 0 9 -4 9 -9z m934
-16 c-4 -8 -11 -15 -16 -15 -6 0 -5 6 2 15 7 8 14 15 16 15 2 0 1 -7 -2 -15z
m-2490 -4 c3 -4 3 -11 0 -14 -8 -8 -34 3 -34 14 0 11 27 12 34 0z m1486 -41
c0 -12 -40 -34 -48 -26 -3 4 3 13 14 21 22 17 34 19 34 5z m870 1 c0 -10 -30
-24 -37 -17 -3 3 -2 9 2 15 8 13 35 15 35 2z m-70 -35 c-14 -14 -24 0 -16 21
6 15 8 15 16 3 6 -9 5 -19 0 -24z m-2777 17 c-7 -2 -19 -2 -25 0 -7 3 -2 5 12
5 14 0 19 -2 13 -5z m-70 -23 c3 -12 14 -20 26 -20 20 0 48 -35 34 -43 -33
-20 -143 -17 -143 4 0 5 15 13 33 18 18 5 24 10 13 10 -18 1 -18 2 -3 19 10
10 14 22 10 25 -3 4 1 7 9 7 9 0 18 -9 21 -20z m357 -16 c0 -13 -6 -24 -13
-24 -22 0 -26 11 -15 36 13 28 28 22 28 -12z m-250 5 c0 -11 -5 -19 -12 -17
-17 6 -19 38 -2 38 8 0 14 -9 14 -21z m2810 11 c0 -5 -4 -10 -10 -10 -5 0 -10
5 -10 10 0 6 5 10 10 10 6 0 10 -4 10 -10z m-950 -28 c0 -4 -13 -16 -30 -25
-28 -17 -30 -17 -30 -1 0 10 5 14 14 11 8 -3 17 1 20 9 6 15 26 20 26 6z
m-2092 -29 c2 -8 -6 -13 -22 -13 -26 0 -40 12 -29 24 11 11 46 2 51 -11z m272
-13 c0 -5 -9 -10 -20 -10 -11 0 -20 5 -20 10 0 6 9 10 20 10 11 0 20 -4 20
-10z m1725 -30 c3 -5 1 -10 -4 -10 -6 0 -11 5 -11 10 0 6 2 10 4 10 3 0 8 -4
11 -10z m-835 -41 c0 -11 -27 -12 -34 0 -3 4 -3 11 0 14 8 8 34 -3 34 -14z
m815 11 c3 -5 -1 -10 -9 -10 -9 0 -16 5 -16 10 0 6 4 10 9 10 6 0 13 -4 16
-10z m-1050 -48 c34 -8 24 -10 -64 -9 -77 2 -106 5 -109 15 -3 11 10 13 64 9
38 -3 87 -9 109 -15z m980 -12 c-10 -11 -20 -18 -23 -15 -7 6 18 35 31 35 5 0
2 -9 -8 -20z m-1463 -107 c25 -23 28 -24 28 -8 0 15 3 16 12 7 18 -18 46 -14
53 7 7 22 37 18 73 -10 l23 -18 -38 -7 c-21 -5 -76 -8 -123 -8 l-85 -1 -1 33
c-1 40 19 42 58 5z m828 8 c5 -11 19 -23 30 -26 31 -10 13 -25 -28 -25 -31 1
-41 6 -59 35 l-22 35 34 0 c24 0 38 -6 45 -19z m-130 3 c0 -4 -8 -13 -17 -19
-16 -12 -14 -14 16 -22 l33 -9 -27 -14 c-24 -13 -28 -13 -40 3 -16 23 -35 22
-35 -2 0 -16 -9 -21 -43 -26 -61 -9 -91 -3 -95 19 -3 15 0 18 17 13 25 -6 28
8 5 21 -14 8 -14 11 -3 18 23 14 189 30 189 18z m-217 -31 c-7 -2 -19 -2 -25
0 -7 3 -2 5 12 5 14 0 19 -2 13 -5z m-106 -23 c-30 -23 -60 -26 -76 -6 -14 17
1 23 63 25 l39 1 -26 -20z m-167 -19 c0 -12 11 -23 30 -30 40 -13 38 -31 -4
-31 -18 0 -60 -3 -93 -6 -54 -6 -62 -4 -81 17 -18 19 -22 20 -22 6 0 -11 -8
-17 -24 -17 -13 0 -30 -2 -38 -5 -8 -3 -18 6 -25 25 -13 35 -14 35 102 49 124
15 155 14 155 -8z m2182 -33 c-8 -8 -12 -9 -12 -1 0 6 -3 20 -6 30 -7 17 -6
17 12 1 14 -14 16 -20 6 -30z m-1034 2 c12 0 22 -5 22 -11 0 -6 8 -8 19 -4 10
3 23 0 29 -8 8 -10 6 -12 -12 -12 -12 1 -26 4 -32 7 -11 6 -45 4 -59 -3 -14
-8 -153 -5 -161 4 -4 4 9 7 29 7 20 0 39 5 42 11 4 6 14 8 22 5 9 -4 17 1 20
13 4 17 7 18 31 5 15 -8 37 -14 50 -14z m-445 1 c2 -11 15 -21 28 -23 22 -4
21 -5 -11 -20 -19 -8 -39 -12 -45 -8 -5 4 -32 7 -58 6 -46 -3 -48 -2 -45 23 2
20 10 27 33 32 62 13 92 10 98 -10z m-203 -9 c0 -12 -44 -36 -62 -33 -10 1
-26 -2 -36 -8 -21 -11 -100 5 -87 17 3 4 43 12 88 18 45 6 85 12 90 12 4 1 7
-1 7 -6z m355 -2 c3 -5 16 -10 27 -10 12 0 19 -3 16 -6 -9 -8 -78 7 -78 17 0
12 27 11 35 -1z m1319 -32 c-4 -6 -10 -5 -15 3 -14 22 -10 33 6 19 8 -7 12
-17 9 -22z m-1929 -8 c-11 -5 -27 -9 -35 -9 -13 -1 -13 0 0 9 8 5 24 9 35 9
l20 0 -20 -9z m960 -42 c4 -4 13 -4 21 -1 8 3 14 -1 14 -11 0 -13 -12 -16 -67
-16 -73 0 -109 13 -84 29 16 10 106 10 116 -1z m955 -33 c-6 -7 -7 -16 -2 -19
11 -7 3 -56 -9 -56 -12 0 -9 80 4 105 10 18 11 19 15 2 2 -10 -1 -24 -8 -32z
m-1090 31 c0 -3 -4 -8 -10 -11 -5 -3 -10 -1 -10 4 0 6 5 11 10 11 6 0 10 -2
10 -4z m-730 -16 c0 -5 -2 -10 -4 -10 -3 0 -8 5 -11 10 -3 6 -1 10 4 10 6 0
11 -4 11 -10z m1250 -50 c0 -5 -4 -10 -9 -10 -6 0 -13 5 -16 10 -3 6 1 10 9
10 9 0 16 -4 16 -10z m560 -103 c0 -50 -16 -65 -23 -22 -3 20 -3 43 0 51 9 23
23 5 23 -29z m-320 -8 c0 -9 -15 -13 -39 -10 -7 2 -10 -2 -6 -8 4 -7 -4 -11
-19 -11 -34 0 -33 11 2 31 27 15 62 14 62 -2z m30 -69 c0 -5 -2 -10 -4 -10 -3
0 -8 5 -11 10 -3 6 -1 10 4 10 6 0 11 -4 11 -10z m270 -10 c0 -5 -5 -10 -11
-10 -5 0 -7 5 -4 10 3 6 8 10 11 10 2 0 4 -4 4 -10z m-240 -20 c0 -5 -2 -10
-4 -10 -3 0 -8 5 -11 10 -3 6 -1 10 4 10 6 0 11 -4 11 -10z m-1557 -49 c-27
-21 -61 -53 -77 -70 -17 -17 -38 -31 -47 -31 -10 0 -25 -10 -33 -22 -9 -12
-19 -19 -22 -15 -4 4 -2 13 4 20 7 8 8 18 4 22 -4 5 0 4 8 0 13 -8 13 -7 1 8
-17 21 -31 22 -31 2 0 -23 -78 -19 -115 5 -40 26 -75 26 -75 0 0 -26 -12 -25
-35 0 -10 12 -25 18 -32 16 -7 -3 -13 -1 -13 3 0 5 8 12 17 15 12 5 14 9 6 14
-21 13 -3 52 23 52 17 0 23 -6 26 -27 2 -17 10 -29 20 -31 13 -2 16 1 12 12
-5 13 1 16 25 16 18 0 34 6 37 14 5 12 10 12 35 -2 28 -16 30 -16 47 5 19 25
40 28 170 30 l92 2 -47 -38z m-659 -36 c-5 -12 2 -15 29 -15 22 0 37 6 41 15
6 18 96 22 96 4 0 -7 -11 -8 -31 -4 -26 6 -36 2 -62 -22 -62 -57 -64 -58 -81
-25 -9 17 -23 37 -31 46 -15 15 -14 16 14 16 23 0 29 -4 25 -15z m2312 -32
c-10 -10 -19 5 -10 18 6 11 8 11 12 0 2 -7 1 -15 -2 -18z m234 -33 c0 -5 -2
-10 -4 -10 -3 0 -8 5 -11 10 -3 6 -1 10 4 10 6 0 11 -4 11 -10z m-201 -36
c-14 -18 -24 -11 -15 11 3 9 11 13 16 10 8 -5 7 -11 -1 -21z m31 -18 c0 -8 -4
-17 -9 -21 -12 -7 -24 12 -16 25 9 15 25 12 25 -4z m-1910 -6 c0 -5 -4 -10
-10 -10 -5 0 -10 5 -10 10 0 6 5 10 10 10 6 0 10 -4 10 -10z m1936 -65 c6 -19
8 -35 4 -35 -9 0 -30 46 -30 67 0 23 12 8 26 -32z"/>
<path d="M546 1417 c-10 -7 -17 -21 -15 -30 4 -15 8 -14 37 5 25 15 30 23 20
29 -18 12 -21 11 -42 -4z"/>
<path d="M950 295 c7 -8 16 -15 21 -15 5 0 9 7 9 15 0 9 -9 15 -21 15 -18 0
-19 -2 -9 -15z"/>
<path d="M1367 2521 c23 -22 47 -41 53 -41 18 0 10 15 -18 32 -15 10 -38 25
-52 34 -14 9 -6 -2 17 -25z"/>
<path d="M1540 2524 c0 -8 6 -11 15 -8 8 4 15 9 15 13 0 4 -7 8 -15 8 -8 0
-15 -6 -15 -13z"/>
<path d="M2425 2493 c-27 -2 -57 -6 -65 -10 -8 -3 -23 -8 -33 -10 -29 -5 -163
-110 -198 -154 -19 -24 -29 -46 -25 -55 4 -12 2 -15 -9 -10 -8 3 -16 1 -16 -4
-1 -6 -2 -13 -4 -17 -15 -55 -21 -73 -39 -103 -14 -24 -15 -31 -5 -23 17 14
39 0 39 -23 0 -6 7 -18 16 -25 14 -11 18 -10 33 10 20 27 38 24 109 -14 23
-13 42 -20 42 -16 0 5 23 4 51 -1 28 -5 56 -7 62 -4 7 2 1 5 -13 5 -31 1 -114
71 -137 114 -10 20 -16 56 -16 98 0 83 33 149 85 169 18 7 39 20 45 28 8 10
36 17 73 20 56 4 64 2 129 -38 78 -46 98 -70 107 -128 15 -92 -47 -202 -139
-245 -37 -18 -53 -35 -19 -22 9 4 28 8 42 10 104 15 174 66 215 156 l25 57 77
-44 c73 -41 123 -56 123 -35 0 19 -133 131 -250 210 -90 62 -139 88 -179 98
-31 7 -60 12 -66 11 -5 -1 -32 -3 -60 -5z"/>
<path d="M5494 2453 c7 -70 42 -224 68 -298 6 -16 13 -53 17 -80 7 -52 45
-120 62 -110 5 4 9 18 9 32 l0 25 20 -23 c11 -14 19 -19 20 -11 0 16 -31 74
-45 84 -5 4 -3 9 5 13 13 4 14 19 6 90 -11 93 -31 119 -24 30 3 -30 1 -55 -3
-55 -12 0 -52 188 -44 207 6 13 11 4 20 -37 7 -30 13 -47 14 -37 1 11 6 15 12
11 8 -4 8 0 0 15 -7 12 -9 26 -5 32 3 6 -3 19 -15 30 -12 11 -21 15 -21 9 0
-25 -20 -7 -25 24 -4 21 -18 42 -35 55 -37 27 -39 27 -36 -6z m31 -12 c3 -5 1
-12 -5 -16 -5 -3 -10 1 -10 9 0 18 6 21 15 7z m15 -51 c0 -5 -5 -10 -11 -10
-5 0 -7 5 -4 10 3 6 8 10 11 10 2 0 4 -4 4 -10z m10 -80 c0 -5 -4 -10 -10 -10
-5 0 -10 5 -10 10 0 6 5 10 10 10 6 0 10 -4 10 -10z"/>
<path d="M2418 2453 c6 -2 18 -2 25 0 6 3 1 5 -13 5 -14 0 -19 -2 -12 -5z"/>
<path d="M4701 2444 c0 -11 3 -14 6 -6 3 7 2 16 -1 19 -3 4 -6 -2 -5 -13z"/>
<path d="M842 2424 c10 -10 20 -16 22 -13 3 3 -5 11 -17 18 -21 13 -21 12 -5
-5z"/>
<path d="M1470 2416 c0 -2 7 -7 16 -10 8 -3 12 -2 9 4 -6 10 -25 14 -25 6z"/>
<path d="M4465 2410 c3 -5 8 -10 11 -10 2 0 4 5 4 10 0 6 -5 10 -11 10 -5 0
-7 -4 -4 -10z"/>
<path d="M656 2395 c4 -8 16 -15 28 -15 21 1 21 1 2 15 -25 19 -37 19 -30 0z"/>
<path d="M2313 2393 c-29 -11 43 -141 115 -209 51 -47 75 -54 91 -26 6 9 11
11 11 5 0 -19 17 -16 24 4 4 10 -2 28 -14 45 -12 16 -18 33 -14 39 3 6 -6 23
-21 39 -15 15 -26 32 -26 37 1 4 -10 9 -24 11 -14 2 -25 8 -25 13 0 5 -6 9
-13 9 -7 0 -18 9 -25 20 -12 19 -50 26 -79 13z m124 -75 c28 -26 32 -74 6 -63
-10 4 -24 8 -30 8 -7 0 -11 3 -8 5 3 3 -2 16 -10 29 -28 43 2 58 42 21z"/>
<path d="M4687 2383 c-9 -25 16 -73 28 -54 3 6 2 11 -4 11 -5 0 -11 15 -13 33
-3 29 -4 30 -11 10z"/>
<path d="M5622 2381 c2 -7 7 -12 11 -12 12 1 9 15 -3 20 -7 2 -11 -2 -8 -8z"/>
<path d="M730 2315 c0 -2 9 -9 20 -15 16 -9 18 -8 14 5 -5 13 -34 22 -34 10z"/>
<path d="M4670 2298 c0 -9 5 -20 10 -23 13 -8 13 5 0 25 -8 13 -10 13 -10 -2z"/>
<path d="M4705 2268 c-4 -18 -9 -42 -11 -53 -5 -18 -4 -18 6 -2 15 24 29 21
22 -5 -3 -14 -2 -19 6 -14 18 11 15 46 -4 46 -12 0 -14 7 -9 30 4 17 4 30 2
30 -3 0 -8 -15 -12 -32z"/>
<path d="M940 2270 c0 -5 5 -10 11 -10 5 0 7 5 4 10 -3 6 -8 10 -11 10 -2 0
-4 -4 -4 -10z"/>
<path d="M1308 2203 c7 -3 16 -2 19 1 4 3 -2 6 -13 5 -11 0 -14 -3 -6 -6z"/>
<path d="M4688 2153 c-3 -52 -2 -58 10 -55 17 3 15 -1 -12 -31 -23 -25 -26
-67 -6 -67 5 0 6 8 3 19 -3 10 0 22 6 25 6 4 11 -1 12 -11 0 -16 1 -16 9 2 14
34 12 75 -5 75 -19 0 -19 9 0 34 19 25 19 33 0 33 -9 0 -16 -10 -17 -24z"/>
<path d="M4651 2094 c0 -11 3 -14 6 -6 3 7 2 16 -1 19 -3 4 -6 -2 -5 -13z"/>
<path d="M2438 2033 c6 -2 18 -2 25 0 6 3 1 5 -13 5 -14 0 -19 -2 -12 -5z"/>
<path d="M2946 2000 c-3 -8 -12 -63 -20 -121 -8 -59 -21 -120 -30 -138 -9 -17
-12 -31 -6 -31 5 0 10 5 10 10 0 6 7 10 16 10 13 0 10 -6 -10 -25 -15 -14 -32
-23 -37 -20 -5 4 -4 -5 3 -19 6 -14 15 -26 20 -26 4 0 8 -9 8 -19 0 -24 29
-36 36 -16 4 8 10 12 15 9 5 -3 10 5 11 18 1 13 2 32 3 43 1 11 6 31 12 45 6
14 13 66 17 116 6 72 4 94 -7 105 -7 8 -12 19 -10 24 2 6 -3 20 -11 30 -12 17
-15 17 -20 5z m-6 -250 c0 -5 -2 -10 -4 -10 -3 0 -8 5 -11 10 -3 6 -1 10 4 10
6 0 11 -4 11 -10z"/>
<path d="M4654 1948 c3 -18 5 -35 6 -38 0 -3 5 3 11 12 7 12 6 24 -1 38 -15
29 -20 25 -16 -12z"/>
<path d="M4337 1659 c4 -13 8 -18 11 -10 2 7 -1 18 -6 23 -8 8 -9 4 -5 -13z"/>
<path d="M4268 1644 c-16 -8 -28 -18 -28 -23 0 -5 -9 -11 -20 -14 -11 -3 -20
-13 -20 -24 0 -10 -8 -23 -19 -30 -12 -8 -17 -21 -15 -39 1 -16 -2 -35 -7 -44
-8 -11 -9 -7 -6 18 5 46 -9 40 -17 -8 -7 -44 -26 -55 -26 -15 0 14 5 25 12 25
6 0 8 3 5 6 -11 11 -38 -18 -32 -34 3 -8 -3 -16 -15 -19 -14 -4 -19 -11 -15
-23 4 -12 -1 -19 -15 -23 -13 -3 -18 -10 -14 -21 4 -11 1 -16 -10 -16 -11 0
-16 -9 -16 -31 0 -27 -2 -30 -15 -19 -12 10 -19 10 -27 2 -7 -7 -8 -12 -3 -12
4 0 1 -8 -8 -17 -9 -12 -13 -28 -10 -45 6 -30 23 -28 23 2 0 19 17 36 26 27 3
-3 1 -15 -6 -26 -14 -27 -6 -27 19 1 11 12 19 31 17 42 -2 12 -1 15 1 9 3 -7
8 -13 13 -13 16 0 140 156 140 177 0 25 16 39 23 21 3 -7 8 2 12 20 5 22 13
32 26 32 12 0 19 7 19 19 0 11 10 27 22 35 17 12 20 18 10 28 -20 20 -13 32 8
13 20 -18 25 -11 14 19 -7 19 -11 19 -46 0z m2 -30 c0 -8 -5 -12 -10 -9 -6 4
-8 11 -5 16 9 14 15 11 15 -7z m-15 -24 c3 -5 1 -10 -4 -10 -6 0 -11 5 -11 10
0 6 2 10 4 10 3 0 8 -4 11 -10z m-15 -24 c0 -11 -19 -15 -25 -6 -3 5 1 10 9
10 9 0 16 -2 16 -4z m-32 -38 c-2 -6 -10 -14 -16 -16 -7 -2 -10 2 -6 12 7 18
28 22 22 4z m-54 -96 c-6 -4 -14 -16 -18 -27 -6 -13 -10 -16 -13 -7 -6 15 14
42 31 42 8 0 8 -3 0 -8z m-94 -112 c0 -5 -4 -10 -10 -10 -5 0 -10 5 -10 10 0
6 5 10 10 10 6 0 10 -4 10 -10z"/>
<path d="M5738 1653 c-9 -2 -15 -10 -12 -16 6 -16 -38 -18 -48 -3 -6 7 -12 6
-19 -4 -8 -11 -12 -12 -16 -2 -8 19 -23 14 -16 -5 7 -17 6 -17 -20 0 -30 19
-41 22 -32 7 6 -10 -34 -15 -89 -12 -16 1 -35 -3 -42 -9 -11 -9 -18 -8 -29 1
-11 9 -19 9 -28 2 -13 -11 -58 -10 -94 2 -12 4 -24 2 -27 -3 -11 -18 41 -42
111 -53 37 -6 114 -21 171 -35 56 -13 107 -21 114 -17 6 4 8 3 5 -3 -8 -12 24
-23 66 -23 l27 0 0 90 c0 50 -1 89 -2 89 -2 -1 -11 -3 -20 -6z"/>
<path d="M4625 1630 c-27 -4 -59 -10 -70 -14 -53 -21 -82 -38 -104 -61 -13
-14 -27 -25 -33 -25 -5 0 -6 -10 -3 -22 5 -18 4 -20 -4 -8 -10 13 -15 8 -12
-12 0 -5 -7 -8 -17 -8 -22 0 -42 -19 -42 -40 0 -9 -9 -25 -21 -36 -12 -10 -28
-31 -35 -47 -8 -15 -19 -25 -23 -23 -5 3 -17 -4 -27 -16 -11 -12 -14 -18 -8
-15 7 4 14 0 17 -7 4 -10 0 -14 -13 -11 -19 4 -52 -27 -63 -57 -8 -23 13 -24
54 -3 16 9 33 14 38 11 4 -3 22 -1 40 4 21 6 29 5 25 -1 -4 -7 8 -8 33 -3 42
7 63 20 63 39 0 7 9 15 20 18 13 3 20 0 20 -8 0 -8 4 -16 8 -19 5 -3 8 4 8 16
-1 31 19 32 33 2 9 -21 14 -24 26 -14 19 16 20 34 1 27 -20 -8 -37 35 -21 50
13 12 25 7 25 -9 0 -5 -5 -6 -12 -2 -7 4 -8 3 -4 -4 5 -8 17 -6 42 6 33 15 34
17 15 22 -23 5 -30 25 -9 25 7 0 22 10 35 23 23 23 53 30 53 12 0 -5 11 -10
24 -10 16 0 23 -5 22 -17 0 -10 6 -19 15 -21 12 -2 17 4 15 21 0 14 -7 24 -16
23 -8 -1 -15 5 -15 13 0 20 73 23 78 2 4 -12 5 -12 6 3 0 10 9 25 19 32 16 12
15 13 -4 8 -25 -7 -43 14 -23 27 8 5 17 3 21 -4 6 -9 8 -9 8 1 0 10 4 10 20 0
11 -7 20 -18 20 -25 0 -7 5 -13 11 -13 13 0 7 -21 -6 -22 -15 0 -83 -36 -90
-48 -3 -5 1 -10 9 -10 9 0 16 5 16 10 0 6 7 10 15 10 19 0 89 35 126 63 22 15
27 26 24 53 -1 24 2 34 12 34 11 0 13 -7 9 -27 l-7 -28 16 23 c9 12 26 22 38
23 l22 0 -22 11 c-13 6 -23 17 -23 23 0 14 -60 39 -130 54 -50 12 -168 12
-245 1z m105 -4 c0 -3 -4 -8 -10 -11 -5 -3 -10 -1 -10 4 0 6 5 11 10 11 6 0
10 -2 10 -4z m190 -95 c0 -5 -7 -14 -15 -21 -12 -10 -15 -9 -15 6 -1 18 -1 18
-14 2 -16 -21 -32 -23 -42 -5 -4 6 -4 9 1 5 4 -4 14 -1 22 7 16 16 63 21 63 6z
m10 -31 c0 -6 -7 -13 -15 -16 -8 -4 -12 -11 -9 -16 4 -6 -3 -5 -15 2 -12 6
-19 15 -16 21 4 5 10 7 15 4 5 -3 11 -1 15 5 8 13 25 13 25 0z m-540 -100
c-25 -35 -29 -37 -27 -11 0 11 5 17 9 15 5 -3 11 2 14 10 3 9 10 16 16 16 5 0
0 -13 -12 -30z m170 26 c0 -3 -4 -8 -10 -11 -5 -3 -10 -1 -10 4 0 6 5 11 10
11 6 0 10 -2 10 -4z m-76 -92 c3 -8 2 -12 -4 -9 -6 3 -10 10 -10 16 0 14 7 11
14 -7z m-174 -14 c0 -5 -2 -10 -4 -10 -3 0 -8 5 -11 10 -3 6 -1 10 4 10 6 0
11 -4 11 -10z m90 -30 c0 -5 -2 -10 -4 -10 -3 0 -8 5 -11 10 -3 6 -1 10 4 10
6 0 11 -4 11 -10z"/>
<path d="M2888 1564 c5 -25 14 -25 18 1 1 7 -4 16 -10 18 -9 4 -11 -3 -8 -19z"/>
<path d="M2850 1545 c-8 -10 -9 -15 -2 -15 7 0 9 -8 5 -17 -4 -11 -2 -15 3
-10 7 7 15 57 8 57 -1 0 -7 -7 -14 -15z"/>
<path d="M2821 1449 c-13 -17 -27 -26 -30 -20 -7 11 -37 -11 -61 -44 -14 -18
-14 -19 2 -7 9 8 22 11 27 8 5 -4 13 -1 17 5 5 8 3 9 -6 4 -8 -5 -11 -3 -8 6
3 8 15 15 27 15 12 1 23 3 24 5 1 2 13 16 26 32 14 15 20 27 15 26 -5 0 -20
-14 -33 -30z"/>
<path d="M4815 1450 c-3 -5 -1 -10 4 -10 6 0 11 5 11 10 0 6 -2 10 -4 10 -3 0
-8 -4 -11 -10z"/>
<path d="M4627 1395 c-15 -11 -16 -13 -2 -19 9 -3 18 1 22 10 8 21 1 25 -20 9z"/>
<path d="M4668 1363 c-10 -2 -18 -9 -18 -15 0 -5 7 -7 16 -4 9 3 20 6 25 6 5
0 9 5 9 10 0 10 -3 11 -32 3z"/>
<path d="M4576 1321 c-4 -7 -5 -15 -2 -18 9 -9 19 4 14 18 -4 11 -6 11 -12 0z"/>
<path d="M10 1289 c0 -5 5 -7 10 -4 6 3 10 8 10 11 0 2 -4 4 -10 4 -5 0 -10
-5 -10 -11z"/>
<path d="M2783 1185 c-19 -21 -16 -27 7 -15 11 6 20 15 20 20 0 14 -13 12 -27
-5z"/>
<path d="M5290 1143 c0 -9 -6 -13 -13 -10 -17 6 -51 -19 -42 -32 3 -6 1 -11
-4 -11 -6 0 -11 5 -11 10 0 16 -26 11 -54 -11 -15 -12 -26 -30 -26 -44 0 -18
-4 -23 -16 -18 -9 3 -13 12 -9 22 4 11 3 13 -4 6 -7 -7 -6 -22 3 -48 l13 -37
27 25 c30 28 62 34 52 10 -6 -17 23 -21 52 -6 9 5 29 14 45 20 16 6 27 18 27
30 0 11 10 36 21 56 12 20 19 38 16 41 -3 3 -21 7 -41 8 -26 2 -36 -1 -36 -11z
m-100 -93 c0 -5 -4 -10 -10 -10 -5 0 -10 5 -10 10 0 6 5 10 10 10 6 0 10 -4
10 -10z"/>
<path d="M4893 1062 c-20 -41 -22 -61 -20 -164 1 -88 5 -112 12 -97 10 18 12
18 34 -12 26 -36 36 -33 21 5 -8 21 -7 31 5 42 13 14 18 26 30 87 2 9 -1 15
-6 11 -5 -3 -9 -14 -9 -24 0 -30 -19 -34 -31 -7 -7 15 -8 32 -2 43 4 11 8 45
8 76 0 55 0 56 19 40 15 -13 17 -13 11 -2 -12 22 -37 50 -44 50 -3 -1 -16 -22
-28 -48z"/>
<path d="M2953 1078 c-18 -6 -33 -18 -33 -26 0 -13 3 -12 20 3 10 9 26 15 34
12 8 -3 17 1 20 9 6 16 4 16 -41 2z"/>
<path d="M5522 997 c-30 -34 -41 -54 -37 -68 5 -14 2 -17 -8 -13 -17 6 -27
-16 -32 -69 -1 -18 -12 -52 -24 -75 -11 -23 -21 -57 -21 -77 0 -19 -4 -35 -9
-35 -12 0 -23 29 -15 41 3 5 3 9 0 9 -3 0 -10 -10 -17 -21 -8 -17 -8 -23 1
-29 7 -4 9 -13 6 -19 -4 -6 -12 -8 -18 -5 -6 4 -8 2 -5 -3 7 -11 -20 -28 -37
-24 -5 1 -6 -5 -2 -14 3 -9 6 -18 6 -19 0 -2 18 15 41 36 23 22 42 38 44 36 2
-2 -3 -43 -11 -93 -7 -49 -13 -107 -14 -128 0 -21 -4 -36 -9 -32 -5 3 -12 1
-16 -5 -3 -5 1 -10 9 -10 9 0 16 -7 16 -16 0 -13 4 -13 23 5 12 11 36 33 52
48 17 16 26 25 21 21 -6 -5 -13 -8 -18 -8 -10 0 3 64 14 68 4 2 8 10 8 18 0 8
8 14 17 14 14 0 13 -4 -6 -24 -22 -23 -22 -46 0 -46 6 0 7 5 3 12 -5 7 -2 9 8
6 27 -11 98 88 155 218 18 40 20 59 15 109 -5 46 -11 61 -24 63 -10 2 -18 -2
-18 -8 0 -6 5 -8 10 -5 6 3 10 1 10 -4 0 -14 -17 -14 -25 -1 -6 10 -14 50 -22
120 -2 24 -10 51 -16 60 -10 14 -18 10 -55 -33z m-12 -113 c0 -8 -5 -12 -10
-9 -6 4 -8 11 -5 16 9 14 15 11 15 -7z m-20 -104 c0 -5 -2 -10 -4 -10 -3 0 -8
5 -11 10 -3 6 -1 10 4 10 6 0 11 -4 11 -10z m157 -12 c-3 -8 -6 -5 -6 6 -1 11
2 17 5 13 3 -3 4 -12 1 -19z m-127 -40 c0 -19 -16 -5 -17 14 -2 18 0 20 7 8 5
-8 10 -18 10 -22z m-85 -8 c3 -5 1 -10 -4 -10 -6 0 -11 5 -11 10 0 6 2 10 4
10 3 0 8 -4 11 -10z m80 -40 c3 -5 -1 -10 -9 -10 -9 0 -16 5 -16 10 0 6 4 10
9 10 6 0 13 -4 16 -10z m-45 -20 c0 -5 -2 -10 -4 -10 -3 0 -8 5 -11 10 -3 6
-1 10 4 10 6 0 11 -4 11 -10z m43 -82 c-9 -26 -11 -28 -12 -10 -1 12 -5 22
-11 22 -5 0 -10 7 -10 16 0 8 5 12 10 9 6 -3 10 -1 10 6 0 10 3 10 12 1 8 -8
8 -20 1 -44z m-53 7 c0 -8 -4 -17 -10 -20 -6 -4 -10 5 -10 20 0 15 4 24 10 20
6 -3 10 -12 10 -20z m30 -24 c0 -13 -29 -35 -37 -28 -7 8 15 37 28 37 5 0 9
-4 9 -9z m-50 -36 c0 -14 -4 -25 -10 -25 -11 0 -14 33 -3 43 11 11 13 8 13
-18z"/>
<path d="M3526 992 c-21 -14 -33 -28 -27 -30 6 -2 9 -8 5 -13 -3 -5 0 -9 5 -9
6 0 11 7 11 15 0 8 12 26 27 40 35 32 29 31 -21 -3z"/>
<path d="M4090 984 c-7 -12 -13 -35 -14 -51 -1 -16 -15 -46 -34 -68 -17 -22
-32 -44 -32 -49 0 -5 -7 -14 -15 -20 -16 -12 -117 -173 -140 -222 -7 -17 -21
-37 -30 -44 -15 -13 -16 -10 -10 23 6 30 4 37 -9 37 -9 0 -15 -3 -15 -7 1 -5
1 -18 0 -31 -1 -19 -5 -22 -21 -17 -11 4 -20 2 -20 -4 0 -6 5 -10 12 -9 6 2
14 -5 16 -16 2 -11 0 -16 -6 -12 -6 4 -10 -2 -9 -13 1 -11 6 -17 14 -14 8 3 1
-21 -17 -58 -29 -63 -37 -99 -23 -112 3 -4 8 -17 9 -30 5 -45 23 -101 43 -127
11 -16 18 -36 14 -48 -3 -14 3 -25 22 -38 18 -12 25 -23 22 -36 -5 -19 5 -19
294 -17 295 2 322 5 275 33 -14 8 -20 8 -23 -2 -7 -19 -43 -14 -51 7 -10 26
-79 73 -85 58 -3 -7 -8 -4 -13 8 -4 11 -16 29 -26 40 -65 69 -94 233 -90 498
2 97 -1 147 -8 147 -6 0 -8 -10 -4 -25 4 -15 2 -25 -5 -25 -6 0 -8 6 -5 14 3
8 0 17 -6 21 -7 4 -4 13 11 26 20 17 16 24 -13 21 -9 -2 3 79 18 117 8 18 14
41 14 51 0 24 -26 21 -40 -6z m6 -61 c-10 -10 -19 5 -10 18 6 11 8 11 12 0 2
-7 1 -15 -2 -18z m-89 -175 c-3 -7 -5 -2 -5 12 0 14 2 19 5 13 2 -7 2 -19 0
-25z m103 -91 c0 -34 -4 -79 -9 -99 -5 -22 -5 -36 0 -32 5 3 9 -25 9 -62 0
-37 -2 -65 -5 -62 -5 5 -18 62 -32 146 -3 17 -9 32 -13 32 -8 0 -1 37 20 107
18 57 30 45 30 -30z m-118 31 c-8 -8 -9 -4 -5 13 4 13 8 18 11 10 2 -7 -1 -18
-6 -23z m-76 -126 c-12 -11 -17 7 -9 34 l8 29 3 -28 c2 -16 1 -31 -2 -35z
m119 -92 c3 -5 2 -10 -4 -10 -5 0 -13 5 -16 10 -3 6 -2 10 4 10 5 0 13 -4 16
-10z m45 -100 c0 -5 -4 -10 -10 -10 -5 0 -10 5 -10 10 0 6 5 10 10 10 6 0 10
-4 10 -10z m10 -39 c0 -6 -4 -13 -10 -16 -5 -3 -10 1 -10 9 0 9 5 16 10 16 6
0 10 -4 10 -9z m-70 -52 c0 -6 -4 -7 -10 -4 -5 3 -10 11 -10 16 0 6 5 7 10 4
6 -3 10 -11 10 -16z m90 -53 c0 -3 -4 -8 -10 -11 -5 -3 -10 -1 -10 4 0 6 5 11
10 11 6 0 10 -2 10 -4z m-30 -57 c0 -11 -4 -17 -10 -14 -5 3 -10 13 -10 21 0
8 5 14 10 14 6 0 10 -9 10 -21z m25 -29 c3 -5 1 -10 -4 -10 -6 0 -11 5 -11 10
0 6 2 10 4 10 3 0 8 -4 11 -10z"/>
<path d="M3397 973 c-4 -3 -7 -13 -7 -22 1 -13 3 -13 11 2 11 19 8 33 -4 20z"/>
<path d="M4529 915 c-1 -27 -1 -54 0 -58 1 -4 3 -16 4 -27 2 -11 6 -23 10 -26
10 -11 9 -24 -3 -24 -5 0 -13 12 -16 26 l-7 27 -15 -29 c-8 -16 -17 -23 -19
-17 -3 7 3 23 11 35 24 34 19 40 -9 12 -14 -14 -25 -30 -25 -37 0 -8 -4 -7 -9
2 -7 11 -11 4 -17 -24 -5 -26 -3 -40 5 -43 6 -2 11 -8 11 -13 0 -6 -5 -7 -10
-4 -7 4 -8 -3 -4 -22 4 -15 11 -29 16 -31 4 -2 8 -10 8 -18 0 -9 -4 -12 -10
-9 -5 3 -10 -3 -10 -14 0 -11 4 -22 8 -25 4 -2 7 -48 6 -101 0 -52 3 -98 8
-101 4 -3 5 -23 2 -44 -5 -30 -1 -47 16 -74 25 -41 38 -46 36 -14 0 11 5 23
12 25 7 3 12 -4 12 -16 0 -33 18 -34 59 0 41 33 111 151 111 188 0 11 10 46
21 77 18 47 19 58 8 65 -11 7 -11 11 -2 17 13 8 6 49 -16 90 -7 14 -8 23 -1
27 7 4 7 12 0 25 -7 13 -6 20 3 23 7 3 5 6 -5 6 -10 1 -18 6 -18 12 0 5 5 7
10 4 13 -8 13 4 -1 43 -6 18 -15 30 -19 27 -5 -3 -23 12 -40 32 l-31 38 6 -50
6 -50 -23 26 c-13 14 -35 41 -50 60 l-27 34 -2 -50z m-59 -161 c0 -8 4 -12 10
-9 6 3 7 -1 4 -9 -4 -10 -1 -16 7 -16 7 0 9 -3 6 -7 -10 -9 -47 32 -47 52 0 9
5 13 10 10 6 -3 10 -13 10 -21z m50 16 c0 -5 -2 -10 -4 -10 -3 0 -8 5 -11 10
-3 6 -1 10 4 10 6 0 11 -4 11 -10z m115 -80 c4 -19 18 -61 31 -94 20 -50 22
-60 9 -72 -8 -8 -11 -22 -8 -31 4 -11 2 -14 -8 -11 -9 3 -15 22 -17 49 -1 24
-9 79 -17 123 -8 43 -15 83 -15 90 1 19 17 -17 25 -54z m-66 -162 c-1 -69 -2
-71 -10 -28 -11 64 -11 100 1 100 6 0 9 -30 9 -72z m138 -20 c-3 -8 -6 -5 -6
6 -1 11 2 17 5 13 3 -3 4 -12 1 -19z m-212 -68 c3 -5 1 -10 -4 -10 -6 0 -11 5
-11 10 0 6 2 10 4 10 3 0 8 -4 11 -10z m105 -50 c13 -27 27 -50 32 -50 4 0 8
-5 8 -11 0 -6 -8 -8 -17 -5 -10 3 -25 1 -33 -5 -12 -8 -10 -9 8 -4 24 7 29 -4
11 -22 -15 -15 -38 6 -39 33 0 11 -3 40 -6 67 -8 61 6 60 36 -3z m73 25 c-3
-8 -9 -15 -14 -15 -10 0 -12 24 -3 33 11 11 24 -3 17 -18z m-13 -56 c0 -5 -4
-9 -10 -9 -5 0 -10 7 -10 16 0 8 5 12 10 9 6 -3 10 -10 10 -16z m-135 -49 c3
-5 -1 -10 -9 -10 -9 0 -16 5 -16 10 0 6 4 10 9 10 6 0 13 -4 16 -10z"/>
<path d="M3435 921 c1 -14 -8 -37 -19 -50 -22 -25 -6 -21 27 7 20 18 23 58 4
65 -9 3 -13 -4 -12 -22z"/>
<path d="M4034 922 c4 -7 2 -19 -4 -27 -7 -9 -8 -15 -2 -15 16 0 24 32 11 44
-9 8 -10 8 -5 -2z"/>
<path d="M4170 913 c0 -12 -4 -25 -10 -28 -15 -9 -12 -25 4 -25 18 0 31 49 17
63 -8 8 -11 5 -11 -10z"/>
<path d="M3346 894 c-10 -14 -16 -28 -13 -30 2 -3 12 7 21 22 10 14 16 28 13
30 -2 3 -12 -7 -21 -22z"/>
<path d="M3290 869 c0 -5 5 -7 10 -4 6 3 10 8 10 11 0 2 -4 4 -10 4 -5 0 -10
-5 -10 -11z"/>
<path d="M3990 855 c-8 -9 -8 -15 -2 -15 12 0 26 19 19 26 -2 2 -10 -2 -17
-11z"/>
<path d="M4447 846 c-4 -10 -5 -21 -2 -24 9 -9 17 6 13 25 -3 17 -4 17 -11 -1z"/>
<path d="M3955 801 c-8 -17 -12 -31 -7 -31 12 0 37 48 29 56 -3 3 -13 -8 -22
-25z"/>
<path d="M3336 805 c-11 -8 -15 -15 -9 -15 6 0 16 7 23 15 16 19 11 19 -14 0z"/>
<path d="M5400 804 c0 -8 5 -12 10 -9 6 3 10 10 10 16 0 5 -4 9 -10 9 -5 0
-10 -7 -10 -16z"/>
<path d="M5080 804 c0 -3 10 -27 21 -54 12 -27 19 -57 15 -66 -4 -11 3 -9 23
8 26 20 28 25 16 43 -7 11 -20 19 -28 17 -9 -1 -19 10 -25 28 -10 26 -22 40
-22 24z"/>
<path d="M5038 754 c-19 -48 -34 -112 -44 -184 -4 -30 -15 -71 -25 -91 -10
-20 -16 -39 -13 -42 3 -2 -3 -21 -13 -41 -15 -32 -15 -38 -3 -46 8 -5 15 -16
15 -24 0 -28 20 -20 25 10 3 16 10 29 17 29 6 0 15 4 20 9 5 5 3 6 -4 2 -8 -5
-13 -1 -13 9 0 12 5 15 16 11 13 -5 14 -1 9 24 -5 22 0 40 18 71 15 25 27 36
30 27 3 -8 8 -4 15 12 6 14 11 21 12 15 1 -15 20 18 20 35 -1 12 -3 11 -11 -2
-20 -35 -29 -17 -9 20 19 35 19 38 3 50 -10 7 -17 23 -15 35 2 13 -5 42 -15
66 l-19 43 -16 -38z"/>
<path d="M5376 761 c-4 -7 -5 -15 -2 -18 9 -9 19 4 14 18 -4 11 -6 11 -12 0z"/>
<path d="M3903 753 c4 -6 0 -13 -8 -17 -9 -3 -15 -18 -15 -38 l0 -33 13 25
c23 44 26 59 15 66 -6 4 -8 3 -5 -3z"/>
<path d="M3835 640 c-17 -19 -14 -57 4 -46 12 8 32 66 22 66 -4 0 -16 -9 -26
-20z"/>
<path d="M2060 560 c0 -5 5 -10 10 -10 6 0 10 5 10 10 0 6 -4 10 -10 10 -5 0
-10 -4 -10 -10z"/>
<path d="M2235 560 c-4 -6 7 -10 24 -10 17 0 31 5 31 10 0 6 -11 10 -24 10
-14 0 -28 -4 -31 -10z"/>
<path d="M1735 540 c-10 -11 -16 -22 -14 -24 2 -2 12 7 22 20 22 29 17 32 -8
4z"/>
<path d="M1890 530 c-9 -6 -10 -10 -3 -10 6 0 15 5 18 10 8 12 4 12 -15 0z"/>
<path d="M2026 511 c-3 -5 5 -11 18 -13 17 -4 23 -1 19 9 -6 15 -29 18 -37 4z"/>
<path d="M970 490 c0 -5 5 -10 10 -10 6 0 10 5 10 10 0 6 -4 10 -10 10 -5 0
-10 -4 -10 -10z"/>
<path d="M5302 488 c-15 -15 -16 -62 -2 -53 6 4 8 11 4 16 -3 5 0 17 7 25 15
18 7 28 -9 12z"/>
<path d="M1453 477 c-12 -19 -15 -55 -5 -61 5 -3 21 7 36 23 l26 28 -24 11
c-19 9 -27 8 -33 -1z"/>
<path d="M654 466 c-8 -22 3 -33 18 -18 9 9 9 15 0 24 -9 9 -13 7 -18 -6z"/>
<path d="M1962 459 c2 -6 8 -10 13 -10 5 0 11 4 13 10 2 6 -4 11 -13 11 -9 0
-15 -5 -13 -11z"/>
<path d="M1880 449 c0 -5 5 -7 10 -4 6 3 10 8 10 11 0 2 -4 4 -10 4 -5 0 -10
-5 -10 -11z"/>
<path d="M2012 448 c-7 -7 -12 -17 -12 -23 0 -12 34 -46 60 -60 13 -8 13 -6 2
7 -7 9 -12 22 -11 30 4 17 -10 58 -20 58 -4 0 -12 -5 -19 -12z"/>
<path d="M2174 452 c2 -4 26 -23 53 -42 l48 -35 -23 30 c-22 28 -57 54 -75 55
-5 0 -6 -3 -3 -8z"/>
<path d="M1791 436 c11 -9 69 -15 64 -6 -3 6 -20 10 -37 10 -17 0 -29 -2 -27
-4z"/>
<path d="M2372 421 c-18 -11 25 -31 60 -28 25 2 26 3 11 17 -12 12 -16 12 -20
2 -4 -11 -8 -10 -22 2 -9 8 -22 12 -29 7z"/>
<path d="M1341 411 c-8 -5 -20 -7 -28 -4 -7 3 -13 -1 -13 -10 0 -8 -19 -26
-42 -40 -46 -27 -95 -74 -86 -82 3 -3 22 6 42 20 20 14 44 25 52 25 9 0 18 9
21 20 3 11 24 33 46 50 37 27 43 43 8 21z"/>
<path d="M1379 403 c-13 -15 -12 -15 9 -4 23 12 28 21 13 21 -5 0 -15 -7 -22
-17z"/>
<path d="M2125 409 c-10 -15 1 -23 20 -15 9 3 13 10 10 16 -8 13 -22 13 -30
-1z"/>
<path d="M2336 393 c3 -15 15 -37 26 -48 19 -20 19 -20 12 10 -4 17 -15 38
-26 48 -18 18 -19 18 -12 -10z"/>
<path d="M1823 383 c9 -2 23 -2 30 0 6 3 -1 5 -18 5 -16 0 -22 -2 -12 -5z"/>
<path d="M2290 380 c0 -5 7 -10 15 -10 8 0 15 5 15 10 0 6 -7 10 -15 10 -8 0
-15 -4 -15 -10z"/>
<path d="M1895 370 c-3 -5 1 -10 9 -10 9 0 16 5 16 10 0 6 -4 10 -9 10 -6 0
-13 -4 -16 -10z"/>
<path d="M1948 373 c7 -3 16 -2 19 1 4 3 -2 6 -13 5 -11 0 -14 -3 -6 -6z"/>
<path d="M1583 363 c-7 -2 -13 -14 -13 -25 0 -18 4 -20 38 -14 20 3 55 6 76 6
38 0 39 0 21 20 -13 15 -30 20 -64 19 -25 0 -52 -3 -58 -6z"/>
<path d="M2110 360 c0 -5 4 -10 9 -10 5 0 18 -3 28 -6 16 -6 16 -5 -2 9 -23
19 -35 21 -35 7z"/>
<path d="M2458 344 c17 -14 32 -32 32 -40 0 -20 -10 -18 -37 8 -39 37 -25 0
18 -47 41 -44 66 -58 56 -31 -3 7 -1 18 4 23 13 13 1 63 -15 63 -7 0 -23 11
-36 25 -13 14 -31 25 -39 25 -10 0 -4 -9 17 -26z"/>
<path d="M2490 360 c0 -5 4 -10 9 -10 6 0 13 5 16 10 3 6 -1 10 -9 10 -9 0
-16 -4 -16 -10z"/>
<path d="M1778 343 c6 -2 18 -2 25 0 6 3 1 5 -13 5 -14 0 -19 -2 -12 -5z"/>
<path d="M1430 308 c-24 -15 -49 -36 -54 -46 -6 -11 2 -8 26 10 24 19 38 24
40 16 3 -7 12 -1 23 15 10 15 16 29 14 31 -2 2 -24 -10 -49 -26z"/>
<path d="M2210 332 c0 -8 27 -33 50 -47 8 -4 2 6 -14 23 -31 34 -36 37 -36 24z"/>
<path d="M1860 321 c-33 -9 -16 -18 53 -29 42 -7 57 -6 57 3 0 10 -67 38 -81
34 -2 -1 -15 -4 -29 -8z"/>
<path d="M1610 290 c0 -5 7 -10 16 -10 8 0 12 5 9 10 -3 6 -10 10 -16 10 -5 0
-9 -4 -9 -10z"/>
<path d="M1990 275 l-25 -15 35 2 c19 2 34 7 33 13 -3 15 -16 15 -43 0z"/>
<path d="M2320 286 c0 -2 8 -10 18 -17 15 -13 16 -12 3 4 -13 16 -21 21 -21
13z"/>
<path d="M2600 280 c0 -12 28 -25 36 -17 3 3 -4 10 -15 17 -15 7 -21 7 -21 0z"/>
<path d="M2380 266 c0 -9 5 -16 10 -16 6 0 10 4 10 9 0 6 -4 13 -10 16 -5 3
-10 -1 -10 -9z"/>
<path d="M2044 245 c-10 -8 -14 -14 -9 -14 6 0 19 6 29 14 11 8 15 15 10 15
-6 0 -19 -7 -30 -15z"/>
<path d="M1200 210 c-25 -22 -52 -40 -59 -40 -11 0 -12 -3 -4 -11 20 -20 58
-1 92 46 40 55 30 57 -29 5z"/>
<path d="M2410 240 c0 -5 5 -10 11 -10 5 0 7 5 4 10 -3 6 -8 10 -11 10 -2 0
-4 -4 -4 -10z"/>
<path d="M2545 240 c-3 -5 1 -10 9 -10 9 0 16 5 16 10 0 6 -4 10 -9 10 -6 0
-13 -4 -16 -10z"/>
<path d="M1509 233 c-30 -3 -36 -8 -36 -27 0 -23 0 -23 18 -5 11 11 28 19 39
19 11 0 20 5 20 10 0 6 -1 9 -2 8 -2 -1 -19 -3 -39 -5z"/>
<path d="M2095 226 c-18 -13 -18 -14 3 -25 27 -14 82 -14 82 0 0 15 -31 38
-51 39 -8 0 -24 -6 -34 -14z"/>
<path d="M2390 219 c0 -8 7 -24 15 -35 15 -19 15 -19 30 0 20 26 19 42 0 26
-13 -11 -18 -10 -30 6 -12 15 -14 16 -15 3z"/>
<path d="M1665 210 c-3 -5 3 -10 14 -10 11 0 23 5 26 10 3 6 -3 10 -14 10 -11
0 -23 -4 -26 -10z"/>
<path d="M1380 200 c-12 -8 -10 -10 8 -10 13 0 20 4 17 10 -7 12 -6 12 -25 0z"/>
<path d="M2164 159 c-3 -5 -2 -9 3 -9 4 0 19 -3 32 -7 16 -4 22 -2 18 4 -9 15
-46 23 -53 12z"/>
<path d="M2590 149 c0 -5 5 -7 10 -4 6 3 10 8 10 11 0 2 -4 4 -10 4 -5 0 -10
-5 -10 -11z"/>
<path d="M5119 153 c-32 -5 -46 -31 -54 -100 l-7 -53 116 0 c64 0 116 3 116 6
0 16 -125 155 -137 153 -4 -1 -20 -4 -34 -6z m81 -134 c0 -6 -4 -7 -10 -4 -5
3 -10 11 -10 16 0 6 5 7 10 4 6 -3 10 -11 10 -16z"/>
<path d="M2450 131 c0 -15 28 -33 40 -26 8 5 8 11 -1 21 -13 15 -39 19 -39 5z"/>
<path d="M1862 118 c2 -6 10 -14 16 -16 7 -2 10 2 6 12 -7 18 -28 22 -22 4z"/>
<path d="M1274 112 c-19 -13 -35 -50 -24 -57 9 -6 90 49 90 61 0 7 -54 4 -66
-4z"/>
<path d="M3640 100 c0 -5 7 -7 15 -4 8 4 15 8 15 10 0 2 -7 4 -15 4 -8 0 -15
-4 -15 -10z"/>
<path d="M950 78 c-23 -19 -36 -48 -21 -48 9 0 54 60 49 65 -1 2 -14 -6 -28
-17z"/>
<path d="M5421 74 c25 -66 37 -73 129 -73 l85 0 -30 25 c-16 14 -43 32 -59 41
-26 14 -28 14 -23 -1 6 -14 3 -15 -13 -6 -11 6 -20 7 -20 3 0 -4 -4 -2 -8 5
-5 7 -22 16 -40 21 -30 9 -31 9 -21 -15z"/>
<path d="M2505 81 c-8 -14 13 -61 27 -61 13 0 9 34 -5 55 -11 13 -16 15 -22 6z"/>
<path d="M2088 63 c-16 -8 -28 -22 -28 -34 0 -25 15 -24 34 2 8 12 19 18 25
14 6 -3 11 1 11 9 0 22 -12 24 -42 9z"/>
<path d="M1428 63 c6 -2 18 -2 25 0 6 3 1 5 -13 5 -14 0 -19 -2 -12 -5z"/>
<path d="M2280 61 c0 -5 7 -14 15 -21 16 -14 18 -10 9 14 -6 17 -24 22 -24 7z"/>
<path d="M1137 34 c-32 -29 -33 -34 -9 -34 11 0 24 12 31 26 16 36 10 38 -22
8z"/>
<path d="M1217 37 c-11 -29 -9 -43 4 -30 6 6 9 19 7 29 -3 18 -4 18 -11 1z"/>
<path d="M2593 34 c-8 -20 13 -42 27 -28 12 12 3 44 -11 44 -5 0 -12 -7 -16
-16z"/>
<path d="M1880 21 c0 -16 6 -21 26 -21 33 0 30 33 -4 38 -17 3 -22 -2 -22 -17z"/>
<path d="M4762 23 c2 -10 14 -20 28 -22 25 -3 25 -3 6 18 -23 26 -39 27 -34 4z"/>
<path d="M2750 15 c0 -8 4 -15 10 -15 5 0 7 7 4 15 -4 8 -8 15 -10 15 -2 0 -4
-7 -4 -15z"/>
<path d="M835 10 c-3 -5 -2 -10 4 -10 5 0 13 5 16 10 3 6 2 10 -4 10 -5 0 -13
-4 -16 -10z"/>
<path d="M1578 3 c7 -3 16 -2 19 1 4 3 -2 6 -13 5 -11 0 -14 -3 -6 -6z"/>
</g>
</svg>
